{
.appVersion = "1271";
copyright = MIT;
date = "2019-12-27 10:15:14 +0000";
designer = "Gelehrte Crest";
designerURL = "http://gelehrte.com";
familyName = NieR;
fontMaster = (
{
ascender = 800;
capHeight = 700;
descender = -200;
id = "B1BCE86B-A7FB-414A-B0E3-B1B1CA0865E7";
xHeight = 500;
}
);
glyphs = (
{
glyphname = A;
lastChange = "2019-12-20 16:06:58 +0000";
layers = (
{
layerId = "B1BCE86B-A7FB-414A-B0E3-B1B1CA0865E7";
paths = (
{
closed = 1;
nodes = (
"30 616 OFFCURVE",
"57 642 OFFCURVE",
"90 642 CURVE SMOOTH",
"123 642 OFFCURVE",
"149 616 OFFCURVE",
"149 583 CURVE SMOOTH",
"149 551 OFFCURVE",
"123 525 OFFCURVE",
"90 525 CURVE SMOOTH",
"57 525 OFFCURVE",
"30 551 OFFCURVE",
"30 583 CURVE SMOOTH"
);
},
{
closed = 1;
nodes = (
"34 92 OFFCURVE",
"60 119 OFFCURVE",
"93 119 CURVE SMOOTH",
"126 119 OFFCURVE",
"152 92 OFFCURVE",
"152 60 CURVE SMOOTH",
"152 27 OFFCURVE",
"126 1 OFFCURVE",
"93 1 CURVE SMOOTH",
"60 1 OFFCURVE",
"34 27 OFFCURVE",
"34 60 CURVE SMOOTH"
);
},
{
closed = 1;
nodes = (
"68 573 OFFCURVE",
"77 563 OFFCURVE",
"88 563 CURVE SMOOTH",
"100 563 OFFCURVE",
"108 573 OFFCURVE",
"108 585 CURVE SMOOTH",
"108 596 OFFCURVE",
"100 606 OFFCURVE",
"88 606 CURVE SMOOTH",
"77 606 OFFCURVE",
"68 596 OFFCURVE",
"68 585 CURVE SMOOTH"
);
},
{
closed = 1;
nodes = (
"73 52 OFFCURVE",
"82 42 OFFCURVE",
"94 42 CURVE SMOOTH",
"105 42 OFFCURVE",
"115 52 OFFCURVE",
"115 63 CURVE SMOOTH",
"115 75 OFFCURVE",
"105 84 OFFCURVE",
"94 84 CURVE SMOOTH",
"82 84 OFFCURVE",
"73 75 OFFCURVE",
"73 63 CURVE SMOOTH"
);
},
{
closed = 1;
nodes = (
"271 409 LINE",
"319 382 LINE",
"138 85 LINE",
"92 112 LINE"
);
},
{
closed = 1;
nodes = (
"145 567 LINE",
"600 109 LINE",
"562 70 LINE",
"106 529 LINE"
);
},
{
closed = 1;
nodes = (
"574 566 LINE",
"620 538 LINE",
"441 241 LINE",
"393 269 LINE"
);
},
{
closed = 1;
nodes = (
"544 617 OFFCURVE",
"570 643 OFFCURVE",
"603 643 CURVE SMOOTH",
"636 643 OFFCURVE",
"664 617 OFFCURVE",
"664 584 CURVE SMOOTH",
"664 552 OFFCURVE",
"636 526 OFFCURVE",
"603 526 CURVE SMOOTH",
"570 526 OFFCURVE",
"544 552 OFFCURVE",
"544 584 CURVE SMOOTH"
);
},
{
closed = 1;
nodes = (
"555 93 OFFCURVE",
"582 120 OFFCURVE",
"615 120 CURVE SMOOTH",
"648 120 OFFCURVE",
"675 93 OFFCURVE",
"675 62 CURVE SMOOTH",
"675 29 OFFCURVE",
"648 2 OFFCURVE",
"615 2 CURVE SMOOTH",
"582 2 OFFCURVE",
"555 29 OFFCURVE",
"555 62 CURVE SMOOTH"
);
},
{
closed = 1;
nodes = (
"581 574 OFFCURVE",
"590 565 OFFCURVE",
"602 565 CURVE SMOOTH",
"613 565 OFFCURVE",
"623 574 OFFCURVE",
"623 586 CURVE SMOOTH",
"623 597 OFFCURVE",
"613 607 OFFCURVE",
"602 607 CURVE SMOOTH",
"590 607 OFFCURVE",
"581 597 OFFCURVE",
"581 586 CURVE SMOOTH"
);
},
{
closed = 1;
nodes = (
"593 51 OFFCURVE",
"603 41 OFFCURVE",
"614 41 CURVE SMOOTH",
"625 41 OFFCURVE",
"635 51 OFFCURVE",
"635 62 CURVE SMOOTH",
"635 74 OFFCURVE",
"625 82 OFFCURVE",
"614 82 CURVE SMOOTH",
"603 82 OFFCURVE",
"593 74 OFFCURVE",
"593 62 CURVE SMOOTH"
);
}
);
width = 705;
}
);
unicode = 0041;
},
{
glyphname = B;
lastChange = "2019-12-20 16:06:46 +0000";
layers = (
{
layerId = "B1BCE86B-A7FB-414A-B0E3-B1B1CA0865E7";
paths = (
{
closed = 1;
nodes = (
"30 630 OFFCURVE",
"57 657 OFFCURVE",
"90 657 CURVE SMOOTH",
"123 657 OFFCURVE",
"150 630 OFFCURVE",
"150 599 CURVE SMOOTH",
"150 566 OFFCURVE",
"123 539 OFFCURVE",
"90 539 CURVE SMOOTH",
"57 539 OFFCURVE",
"30 566 OFFCURVE",
"30 599 CURVE SMOOTH"
);
},
{
closed = 1;
nodes = (
"33 95 OFFCURVE",
"59 121 OFFCURVE",
"92 121 CURVE SMOOTH",
"125 121 OFFCURVE",
"151 95 OFFCURVE",
"151 63 CURVE SMOOTH",
"151 30 OFFCURVE",
"125 4 OFFCURVE",
"92 4 CURVE SMOOTH",
"59 4 OFFCURVE",
"33 30 OFFCURVE",
"33 63 CURVE SMOOTH"
);
},
{
closed = 1;
nodes = (
"68 588 OFFCURVE",
"77 579 OFFCURVE",
"89 579 CURVE SMOOTH",
"100 579 OFFCURVE",
"109 588 OFFCURVE",
"109 600 CURVE SMOOTH",
"109 611 OFFCURVE",
"100 621 OFFCURVE",
"89 621 CURVE SMOOTH",
"77 621 OFFCURVE",
"68 611 OFFCURVE",
"68 600 CURVE SMOOTH"
);
},
{
closed = 1;
nodes = (
"72 54 OFFCURVE",
"81 44 OFFCURVE",
"93 44 CURVE SMOOTH",
"104 44 OFFCURVE",
"113 54 OFFCURVE",
"113 65 CURVE SMOOTH",
"113 77 OFFCURVE",
"104 86 OFFCURVE",
"93 86 CURVE SMOOTH",
"81 86 OFFCURVE",
"72 77 OFFCURVE",
"72 65 CURVE SMOOTH"
);
},
{
closed = 1;
nodes = (
"128 629 LINE",
"128 629 OFFCURVE",
"407 644 OFFCURVE",
"539 505 CURVE SMOOTH",
"661 377 OFFCURVE",
"654 94 OFFCURVE",
"654 94 CURVE",
"600 95 LINE",
"600 95 OFFCURVE",
"618 331 OFFCURVE",
"496 470 CURVE SMOOTH",
"396 584 OFFCURVE",
"131 575 OFFCURVE",
"131 575 CURVE",
"128 629 LINE"
);
},
{
closed = 1;
nodes = (
"137 92 LINE",
"585 92 LINE",
"585 31 LINE",
"137 31 LINE"
);
},
{
closed = 1;
nodes = (
"566 93 OFFCURVE",
"592 119 OFFCURVE",
"625 119 CURVE SMOOTH",
"658 119 OFFCURVE",
"685 93 OFFCURVE",
"685 61 CURVE SMOOTH",
"685 28 OFFCURVE",
"658 1 OFFCURVE",
"625 1 CURVE SMOOTH",
"592 1 OFFCURVE",
"566 28 OFFCURVE",
"566 61 CURVE SMOOTH"
);
},
{
closed = 1;
nodes = (
"605 50 OFFCURVE",
"613 40 OFFCURVE",
"624 40 CURVE SMOOTH",
"636 40 OFFCURVE",
"645 50 OFFCURVE",
"645 61 CURVE SMOOTH",
"645 73 OFFCURVE",
"636 82 OFFCURVE",
"624 82 CURVE SMOOTH",
"613 82 OFFCURVE",
"605 73 OFFCURVE",
"605 61 CURVE SMOOTH"
);
}
);
width = 715;
}
);
unicode = 0042;
},
{
glyphname = C;
lastChange = "2019-12-20 16:07:13 +0000";
layers = (
{
layerId = "B1BCE86B-A7FB-414A-B0E3-B1B1CA0865E7";
paths = (
{
closed = 1;
nodes = (
"30 593 OFFCURVE",
"57 620 OFFCURVE",
"90 620 CURVE SMOOTH",
"123 620 OFFCURVE",
"149 593 OFFCURVE",
"149 561 CURVE SMOOTH",
"149 528 OFFCURVE",
"123 502 OFFCURVE",
"90 502 CURVE SMOOTH",
"57 502 OFFCURVE",
"30 528 OFFCURVE",
"30 561 CURVE SMOOTH"
);
},
{
closed = 1;
nodes = (
"54 519 LINE",
"127 519 LINE",
"127 1 LINE",
"54 1 LINE"
);
},
{
closed = 1;
nodes = (
"67 550 OFFCURVE",
"76 541 OFFCURVE",
"88 541 CURVE SMOOTH",
"99 541 OFFCURVE",
"108 550 OFFCURVE",
"108 562 CURVE SMOOTH",
"108 574 OFFCURVE",
"99 583 OFFCURVE",
"88 583 CURVE SMOOTH",
"76 583 OFFCURVE",
"67 574 OFFCURVE",
"67 562 CURVE SMOOTH"
);
},
{
closed = 1;
nodes = (
"133 600 LINE",
"581 600 LINE",
"581 524 LINE",
"133 524 LINE"
);
},
{
closed = 1;
nodes = (
"564 591 OFFCURVE",
"591 618 OFFCURVE",
"624 618 CURVE SMOOTH",
"657 618 OFFCURVE",
"684 591 OFFCURVE",
"684 559 CURVE SMOOTH",
"684 526 OFFCURVE",
"657 500 OFFCURVE",
"624 500 CURVE SMOOTH",
"591 500 OFFCURVE",
"564 526 OFFCURVE",
"564 559 CURVE SMOOTH"
);
},
{
closed = 1;
nodes = (
"588 518 LINE",
"657 518 LINE",
"657 1 LINE",
"588 1 LINE"
);
},
{
closed = 1;
nodes = (
"602 548 OFFCURVE",
"611 539 OFFCURVE",
"622 539 CURVE SMOOTH",
"634 539 OFFCURVE",
"643 548 OFFCURVE",
"643 560 CURVE SMOOTH",
"643 572 OFFCURVE",
"634 581 OFFCURVE",
"622 581 CURVE SMOOTH",
"611 581 OFFCURVE",
"602 572 OFFCURVE",
"602 560 CURVE SMOOTH"
);
}
);
width = 714;
}
);
unicode = 0043;
},
{
glyphname = D;
lastChange = "2019-12-20 16:07:31 +0000";
layers = (
{
layerId = "B1BCE86B-A7FB-414A-B0E3-B1B1CA0865E7";
paths = (
{
closed = 1;
nodes = (
"30 592 OFFCURVE",
"57 619 OFFCURVE",
"90 619 CURVE SMOOTH",
"123 619 OFFCURVE",
"149 592 OFFCURVE",
"149 560 CURVE SMOOTH",
"149 527 OFFCURVE",
"123 501 OFFCURVE",
"90 501 CURVE SMOOTH",
"57 501 OFFCURVE",
"30 527 OFFCURVE",
"30 560 CURVE SMOOTH"
);
},
{
closed = 1;
nodes = (
"67 549 OFFCURVE",
"76 540 OFFCURVE",
"88 540 CURVE SMOOTH",
"99 540 OFFCURVE",
"108 549 OFFCURVE",
"108 561 CURVE SMOOTH",
"108 573 OFFCURVE",
"99 582 OFFCURVE",
"88 582 CURVE SMOOTH",
"76 582 OFFCURVE",
"67 573 OFFCURVE",
"67 561 CURVE SMOOTH"
);
},
{
closed = 1;
nodes = (
"133 599 LINE",
"581 599 LINE",
"581 523 LINE",
"133 523 LINE"
);
},
{
closed = 1;
nodes = (
"544 593 OFFCURVE",
"571 620 OFFCURVE",
"604 620 CURVE SMOOTH",
"637 620 OFFCURVE",
"664 593 OFFCURVE",
"664 561 CURVE SMOOTH",
"664 528 OFFCURVE",
"637 502 OFFCURVE",
"604 502 CURVE SMOOTH",
"571 502 OFFCURVE",
"544 528 OFFCURVE",
"544 561 CURVE SMOOTH"
);
},
{
closed = 1;
nodes = (
"571 518 LINE",
"640 518 LINE",
"640 1 LINE",
"571 1 LINE"
);
},
{
closed = 1;
nodes = (
"582 550 OFFCURVE",
"591 541 OFFCURVE",
"602 541 CURVE SMOOTH",
"614 541 OFFCURVE",
"623 550 OFFCURVE",
"623 562 CURVE SMOOTH",
"623 574 OFFCURVE",
"614 583 OFFCURVE",
"602 583 CURVE SMOOTH",
"591 583 OFFCURVE",
"582 574 OFFCURVE",
"582 562 CURVE SMOOTH"
);
}
);
width = 694;
}
);
unicode = 0044;
},
{
glyphname = E;
lastChange = "2019-12-20 16:07:45 +0000";
layers = (
{
layerId = "B1BCE86B-A7FB-414A-B0E3-B1B1CA0865E7";
paths = (
{
closed = 1;
nodes = (
"30 590 OFFCURVE",
"57 617 OFFCURVE",
"90 617 CURVE SMOOTH",
"123 617 OFFCURVE",
"149 590 OFFCURVE",
"149 558 CURVE SMOOTH",
"149 525 OFFCURVE",
"123 499 OFFCURVE",
"90 499 CURVE SMOOTH",
"57 499 OFFCURVE",
"30 525 OFFCURVE",
"30 558 CURVE SMOOTH"
);
},
{
closed = 1;
nodes = (
"67 547 OFFCURVE",
"76 538 OFFCURVE",
"88 538 CURVE SMOOTH",
"99 538 OFFCURVE",
"108 547 OFFCURVE",
"108 559 CURVE SMOOTH",
"108 571 OFFCURVE",
"99 580 OFFCURVE",
"88 580 CURVE SMOOTH",
"76 580 OFFCURVE",
"67 571 OFFCURVE",
"67 559 CURVE SMOOTH"
);
},
{
closed = 1;
nodes = (
"133 597 LINE",
"581 597 LINE",
"581 521 LINE",
"133 521 LINE"
);
},
{
closed = 1;
nodes = (
"193 523 LINE",
"263 523 LINE",
"263 1 LINE",
"193 1 LINE"
);
},
{
closed = 1;
nodes = (
"544 591 OFFCURVE",
"571 618 OFFCURVE",
"604 618 CURVE SMOOTH",
"637 618 OFFCURVE",
"664 591 OFFCURVE",
"664 559 CURVE SMOOTH",
"664 526 OFFCURVE",
"637 500 OFFCURVE",
"604 500 CURVE SMOOTH",
"571 500 OFFCURVE",
"544 526 OFFCURVE",
"544 559 CURVE SMOOTH"
);
},
{
closed = 1;
nodes = (
"567 517 LINE",
"637 517 LINE",
"637 1 LINE",
"567 1 LINE"
);
},
{
closed = 1;
nodes = (
"582 548 OFFCURVE",
"591 539 OFFCURVE",
"602 539 CURVE SMOOTH",
"614 539 OFFCURVE",
"623 548 OFFCURVE",
"623 560 CURVE SMOOTH",
"623 572 OFFCURVE",
"614 581 OFFCURVE",
"602 581 CURVE SMOOTH",
"591 581 OFFCURVE",
"582 572 OFFCURVE",
"582 560 CURVE SMOOTH"
);
}
);
width = 694;
}
);
unicode = 0045;
},
{
glyphname = F;
lastChange = "2019-12-20 16:11:11 +0000";
layers = (
{
layerId = "B1BCE86B-A7FB-414A-B0E3-B1B1CA0865E7";
paths = (
{
closed = 1;
nodes = (
"30 626 OFFCURVE",
"57 652 OFFCURVE",
"90 652 CURVE SMOOTH",
"123 652 OFFCURVE",
"149 626 OFFCURVE",
"149 593 CURVE SMOOTH",
"149 561 OFFCURVE",
"123 535 OFFCURVE",
"90 535 CURVE SMOOTH",
"57 535 OFFCURVE",
"30 561 OFFCURVE",
"30 593 CURVE SMOOTH"
);
},
{
closed = 1;
nodes = (
"50 56 LINE",
"663 56 LINE",
"624 18 LINE",
"106 539 LINE",
"145 577 LINE",
"663 56 LINE",
"663 1 LINE",
"50 1 LINE"
);
},
{
closed = 1;
nodes = (
"68 583 OFFCURVE",
"76 573 OFFCURVE",
"87 573 CURVE SMOOTH",
"100 573 OFFCURVE",
"108 583 OFFCURVE",
"108 595 CURVE SMOOTH",
"108 606 OFFCURVE",
"100 616 OFFCURVE",
"87 616 CURVE SMOOTH",
"76 616 OFFCURVE",
"68 606 OFFCURVE",
"68 595 CURVE SMOOTH"
);
},
{
closed = 1;
nodes = (
"448 585 LINE",
"488 548 LINE",
"313 362 LINE",
"273 399 LINE"
);
},
{
closed = 1;
nodes = (
"441 625 OFFCURVE",
"467 651 OFFCURVE",
"500 651 CURVE SMOOTH",
"533 651 OFFCURVE",
"560 625 OFFCURVE",
"560 592 CURVE SMOOTH",
"560 559 OFFCURVE",
"533 532 OFFCURVE",
"500 532 CURVE SMOOTH",
"467 532 OFFCURVE",
"441 559 OFFCURVE",
"441 592 CURVE SMOOTH"
);
},
{
closed = 1;
nodes = (
"478 582 OFFCURVE",
"487 572 OFFCURVE",
"499 572 CURVE SMOOTH",
"510 572 OFFCURVE",
"519 582 OFFCURVE",
"519 593 CURVE SMOOTH",
"519 605 OFFCURVE",
"510 614 OFFCURVE",
"499 614 CURVE SMOOTH",
"487 614 OFFCURVE",
"478 605 OFFCURVE",
"478 593 CURVE SMOOTH"
);
}
);
width = 693;
}
);
unicode = 0046;
},
{
glyphname = G;
lastChange = "2019-12-20 16:13:07 +0000";
layers = (
{
layerId = "B1BCE86B-A7FB-414A-B0E3-B1B1CA0865E7";
paths = (
{
closed = 1;
nodes = (
"30 94 OFFCURVE",
"57 120 OFFCURVE",
"90 120 CURVE SMOOTH",
"123 120 OFFCURVE",
"150 94 OFFCURVE",
"150 61 CURVE SMOOTH",
"150 29 OFFCURVE",
"123 2 OFFCURVE",
"90 2 CURVE SMOOTH",
"57 2 OFFCURVE",
"30 29 OFFCURVE",
"30 61 CURVE SMOOTH"
);
},
{
closed = 1;
nodes = (
"69 50 OFFCURVE",
"77 41 OFFCURVE",
"90 41 CURVE SMOOTH",
"101 41 OFFCURVE",
"109 50 OFFCURVE",
"109 62 CURVE SMOOTH",
"109 73 OFFCURVE",
"101 83 OFFCURVE",
"90 83 CURVE SMOOTH",
"77 83 OFFCURVE",
"69 73 OFFCURVE",
"69 62 CURVE SMOOTH"
);
},
{
closed = 1;
nodes = (
"415 444 LINE",
"465 395 LINE",
"142 68 LINE",
"93 117 LINE"
);
},
{
closed = 1;
nodes = (
"381 94 OFFCURVE",
"407 120 OFFCURVE",
"440 120 CURVE SMOOTH",
"473 120 OFFCURVE",
"501 94 OFFCURVE",
"501 61 CURVE SMOOTH",
"501 28 OFFCURVE",
"473 1 OFFCURVE",
"440 1 CURVE SMOOTH",
"407 1 OFFCURVE",
"381 28 OFFCURVE",
"381 61 CURVE SMOOTH"
);
},
{
closed = 1;
nodes = (
"381 624 OFFCURVE",
"407 650 OFFCURVE",
"440 650 CURVE SMOOTH",
"473 650 OFFCURVE",
"501 624 OFFCURVE",
"501 591 CURVE SMOOTH",
"501 559 OFFCURVE",
"473 532 OFFCURVE",
"440 532 CURVE SMOOTH",
"407 532 OFFCURVE",
"381 559 OFFCURVE",
"381 591 CURVE SMOOTH"
);
},
{
closed = 1;
nodes = (
"405 549 LINE",
"474 549 LINE",
"474 89 LINE",
"405 89 LINE"
);
},
{
closed = 1;
nodes = (
"418 581 OFFCURVE",
"427 572 OFFCURVE",
"439 572 CURVE SMOOTH",
"450 572 OFFCURVE",
"460 581 OFFCURVE",
"460 593 CURVE SMOOTH",
"460 604 OFFCURVE",
"450 614 OFFCURVE",
"439 614 CURVE SMOOTH",
"427 614 OFFCURVE",
"418 604 OFFCURVE",
"418 593 CURVE SMOOTH"
);
},
{
closed = 1;
nodes = (
"419 50 OFFCURVE",
"428 41 OFFCURVE",
"440 41 CURVE SMOOTH",
"451 41 OFFCURVE",
"460 50 OFFCURVE",
"460 62 CURVE SMOOTH",
"460 73 OFFCURVE",
"451 83 OFFCURVE",
"440 83 CURVE SMOOTH",
"428 83 OFFCURVE",
"419 73 OFFCURVE",
"419 62 CURVE SMOOTH"
);
}
);
width = 531;
}
);
unicode = 0047;
},
{
glyphname = H;
lastChange = "2019-12-20 16:11:47 +0000";
layers = (
{
layerId = "B1BCE86B-A7FB-414A-B0E3-B1B1CA0865E7";
paths = (
{
closed = 1;
nodes = (
"30 591 OFFCURVE",
"57 617 OFFCURVE",
"90 617 CURVE SMOOTH",
"123 617 OFFCURVE",
"149 591 OFFCURVE",
"149 558 CURVE SMOOTH",
"149 526 OFFCURVE",
"123 499 OFFCURVE",
"90 499 CURVE SMOOTH",
"57 499 OFFCURVE",
"30 526 OFFCURVE",
"30 558 CURVE SMOOTH"
);
},
{
closed = 1;
nodes = (
"68 548 OFFCURVE",
"76 538 OFFCURVE",
"87 538 CURVE SMOOTH",
"100 538 OFFCURVE",
"108 548 OFFCURVE",
"108 560 CURVE SMOOTH",
"108 571 OFFCURVE",
"100 581 OFFCURVE",
"87 581 CURVE SMOOTH",
"76 581 OFFCURVE",
"68 571 OFFCURVE",
"68 560 CURVE SMOOTH"
);
},
{
closed = 1;
nodes = (
"134 597 LINE",
"581 597 LINE",
"581 561 LINE",
"581 521 LINE",
"134 521 LINE"
);
},
{
closed = 1;
nodes = (
"193 524 LINE",
"262 524 LINE",
"262 1 LINE",
"193 1 LINE"
);
},
{
closed = 1;
nodes = (
"544 592 OFFCURVE",
"570 618 OFFCURVE",
"603 618 CURVE SMOOTH",
"636 618 OFFCURVE",
"664 592 OFFCURVE",
"664 559 CURVE SMOOTH",
"664 527 OFFCURVE",
"636 500 OFFCURVE",
"603 500 CURVE SMOOTH",
"570 500 OFFCURVE",
"544 527 OFFCURVE",
"544 559 CURVE SMOOTH"
);
},
{
closed = 1;
nodes = (
"567 517 LINE",
"636 517 LINE",
"636 1 LINE",
"567 1 LINE"
);
},
{
closed = 1;
nodes = (
"581 549 OFFCURVE",
"590 540 OFFCURVE",
"602 540 CURVE SMOOTH",
"613 540 OFFCURVE",
"623 549 OFFCURVE",
"623 561 CURVE SMOOTH",
"623 572 OFFCURVE",
"613 582 OFFCURVE",
"602 582 CURVE SMOOTH",
"590 582 OFFCURVE",
"581 572 OFFCURVE",
"581 561 CURVE SMOOTH"
);
}
);
width = 694;
}
);
unicode = 0048;
},
{
glyphname = I;
lastChange = "2019-12-20 16:15:55 +0000";
layers = (
{
layerId = "B1BCE86B-A7FB-414A-B0E3-B1B1CA0865E7";
paths = (
{
closed = 1;
nodes = (
"30 93 OFFCURVE",
"57 119 OFFCURVE",
"90 119 CURVE SMOOTH",
"123 119 OFFCURVE",
"150 93 OFFCURVE",
"150 60 CURVE SMOOTH",
"150 28 OFFCURVE",
"123 1 OFFCURVE",
"90 1 CURVE SMOOTH",
"57 1 OFFCURVE",
"30 28 OFFCURVE",
"30 60 CURVE SMOOTH"
);
},
{
closed = 1;
nodes = (
"70 51 OFFCURVE",
"79 42 OFFCURVE",
"91 42 CURVE SMOOTH",
"102 42 OFFCURVE",
"111 51 OFFCURVE",
"111 63 CURVE SMOOTH",
"111 75 OFFCURVE",
"102 84 OFFCURVE",
"91 84 CURVE SMOOTH",
"79 84 OFFCURVE",
"70 75 OFFCURVE",
"70 63 CURVE SMOOTH"
);
},
{
closed = 1;
nodes = (
"315 587 LINE",
"364 563 LINE",
"134 82 LINE",
"85 106 LINE"
);
},
{
closed = 1;
nodes = (
"139 92 LINE",
"587 92 LINE",
"587 31 LINE",
"139 31 LINE"
);
},
{
closed = 1;
nodes = (
"300 629 OFFCURVE",
"327 655 OFFCURVE",
"360 655 CURVE SMOOTH",
"393 655 OFFCURVE",
"419 629 OFFCURVE",
"419 596 CURVE SMOOTH",
"419 564 OFFCURVE",
"393 537 OFFCURVE",
"360 537 CURVE SMOOTH",
"327 537 OFFCURVE",
"300 564 OFFCURVE",
"300 596 CURVE SMOOTH"
);
},
{
closed = 1;
nodes = (
"337 586 OFFCURVE",
"346 577 OFFCURVE",
"358 577 CURVE SMOOTH",
"369 577 OFFCURVE",
"378 586 OFFCURVE",
"378 598 CURVE SMOOTH",
"378 609 OFFCURVE",
"369 619 OFFCURVE",
"358 619 CURVE SMOOTH",
"346 619 OFFCURVE",
"337 609 OFFCURVE",
"337 598 CURVE SMOOTH"
);
},
{
closed = 1;
nodes = (
"402 586 LINE",
"635 107 LINE",
"586 83 LINE",
"353 563 LINE"
);
},
{
closed = 1;
nodes = (
"568 93 OFFCURVE",
"594 121 OFFCURVE",
"627 121 CURVE",
"627 118 LINE",
"660 118 OFFCURVE",
"687 93 OFFCURVE",
"687 60 CURVE SMOOTH",
"687 28 OFFCURVE",
"660 1 OFFCURVE",
"627 1 CURVE SMOOTH",
"594 1 OFFCURVE",
"568 28 OFFCURVE",
"568 60 CURVE SMOOTH"
);
},
{
closed = 1;
nodes = (
"606 49 OFFCURVE",
"615 36 OFFCURVE",
"627 36 CURVE SMOOTH",
"638 36 OFFCURVE",
"647 49 OFFCURVE",
"647 60 CURVE SMOOTH",
"647 72 OFFCURVE",
"638 81 OFFCURVE",
"627 84 CURVE",
"615 84 OFFCURVE",
"606 72 OFFCURVE",
"606 60 CURVE SMOOTH"
);
}
);
width = 717;
}
);
unicode = 0049;
},
{
glyphname = J;
lastChange = "2019-12-20 16:16:34 +0000";
layers = (
{
layerId = "B1BCE86B-A7FB-414A-B0E3-B1B1CA0865E7";
paths = (
{
closed = 1;
nodes = (
"30 93 OFFCURVE",
"57 119 OFFCURVE",
"90 119 CURVE SMOOTH",
"123 119 OFFCURVE",
"150 93 OFFCURVE",
"150 60 CURVE SMOOTH",
"150 28 OFFCURVE",
"123 1 OFFCURVE",
"90 1 CURVE SMOOTH",
"57 1 OFFCURVE",
"30 28 OFFCURVE",
"30 60 CURVE SMOOTH"
);
},
{
closed = 1;
nodes = (
"70 51 OFFCURVE",
"79 42 OFFCURVE",
"91 42 CURVE SMOOTH",
"102 42 OFFCURVE",
"111 51 OFFCURVE",
"111 63 CURVE SMOOTH",
"111 75 OFFCURVE",
"102 84 OFFCURVE",
"91 84 CURVE SMOOTH",
"79 84 OFFCURVE",
"70 75 OFFCURVE",
"70 63 CURVE SMOOTH"
);
},
{
closed = 1;
nodes = (
"315 587 LINE",
"364 563 LINE",
"134 82 LINE",
"85 106 LINE"
);
},
{
closed = 1;
nodes = (
"139 92 LINE",
"587 92 LINE",
"587 31 LINE",
"139 31 LINE"
);
},
{
closed = 1;
nodes = (
"300 629 OFFCURVE",
"327 655 OFFCURVE",
"360 655 CURVE SMOOTH",
"393 655 OFFCURVE",
"419 629 OFFCURVE",
"419 596 CURVE SMOOTH",
"419 564 OFFCURVE",
"393 537 OFFCURVE",
"360 537 CURVE SMOOTH",
"327 537 OFFCURVE",
"300 564 OFFCURVE",
"300 596 CURVE SMOOTH"
);
},
{
closed = 1;
nodes = (
"337 586 OFFCURVE",
"346 577 OFFCURVE",
"358 577 CURVE SMOOTH",
"369 577 OFFCURVE",
"378 586 OFFCURVE",
"378 598 CURVE SMOOTH",
"378 609 OFFCURVE",
"369 619 OFFCURVE",
"358 619 CURVE SMOOTH",
"346 619 OFFCURVE",
"337 609 OFFCURVE",
"337 598 CURVE SMOOTH"
);
},
{
closed = 1;
nodes = (
"402 586 LINE",
"635 107 LINE",
"586 83 LINE",
"353 563 LINE"
);
},
{
closed = 1;
nodes = (
"568 93 OFFCURVE",
"594 121 OFFCURVE",
"627 121 CURVE",
"627 118 LINE",
"660 118 OFFCURVE",
"687 93 OFFCURVE",
"687 60 CURVE SMOOTH",
"687 28 OFFCURVE",
"660 1 OFFCURVE",
"627 1 CURVE SMOOTH",
"594 1 OFFCURVE",
"568 28 OFFCURVE",
"568 60 CURVE SMOOTH"
);
},
{
closed = 1;
nodes = (
"606 49 OFFCURVE",
"615 36 OFFCURVE",
"627 36 CURVE SMOOTH",
"638 36 OFFCURVE",
"647 49 OFFCURVE",
"647 60 CURVE SMOOTH",
"647 72 OFFCURVE",
"638 81 OFFCURVE",
"627 84 CURVE",
"615 84 OFFCURVE",
"606 72 OFFCURVE",
"606 60 CURVE SMOOTH"
);
}
);
width = 717;
}
);
unicode = 004A;
},
{
glyphname = K;
lastChange = "2019-12-20 16:21:31 +0000";
layers = (
{
layerId = "B1BCE86B-A7FB-414A-B0E3-B1B1CA0865E7";
paths = (
{
closed = 1;
nodes = (
"30 152 OFFCURVE",
"57 178 OFFCURVE",
"90 178 CURVE SMOOTH",
"123 178 OFFCURVE",
"150 152 OFFCURVE",
"150 119 CURVE SMOOTH",
"150 87 OFFCURVE",
"123 60 OFFCURVE",
"90 60 CURVE SMOOTH",
"57 60 OFFCURVE",
"30 87 OFFCURVE",
"30 119 CURVE SMOOTH"
);
},
{
closed = 1;
nodes = (
"30 560 OFFCURVE",
"56 587 OFFCURVE",
"89 587 CURVE SMOOTH",
"122 587 OFFCURVE",
"149 560 OFFCURVE",
"149 528 CURVE SMOOTH",
"149 495 OFFCURVE",
"122 469 OFFCURVE",
"89 469 CURVE SMOOTH",
"56 469 OFFCURVE",
"30 495 OFFCURVE",
"30 528 CURVE SMOOTH"
);
},
{
closed = 1;
nodes = (
"67 518 OFFCURVE",
"76 508 OFFCURVE",
"88 508 CURVE SMOOTH",
"99 508 OFFCURVE",
"108 518 OFFCURVE",
"108 529 CURVE SMOOTH",
"108 541 OFFCURVE",
"99 550 OFFCURVE",
"88 550 CURVE SMOOTH",
"76 550 OFFCURVE",
"67 541 OFFCURVE",
"67 529 CURVE SMOOTH"
);
},
{
closed = 1;
nodes = (
"70 110 OFFCURVE",
"79 101 OFFCURVE",
"91 101 CURVE SMOOTH",
"102 101 OFFCURVE",
"111 110 OFFCURVE",
"111 122 CURVE SMOOTH",
"111 133 OFFCURVE",
"102 143 OFFCURVE",
"91 143 CURVE SMOOTH",
"79 143 OFFCURVE",
"70 133 OFFCURVE",
"70 122 CURVE SMOOTH"
);
},
{
closed = 1;
nodes = (
"109 569 LINE",
"109 569 OFFCURVE",
"176 657 OFFCURVE",
"326 657 CURVE SMOOTH",
"476 657 OFFCURVE",
"612 520 OFFCURVE",
"612 330 CURVE SMOOTH",
"612 140 OFFCURVE",
"476 1 OFFCURVE",
"326 1 CURVE SMOOTH",
"176 1 OFFCURVE",
"110 85 OFFCURVE",
"110 85 CURVE",
"135 130 LINE",
"135 130 OFFCURVE",
"238 55 OFFCURVE",
"326 55 CURVE SMOOTH",
"414 55 OFFCURVE",
"554 130 OFFCURVE",
"554 330 CURVE SMOOTH",
"554 530 OFFCURVE",
"414 600 OFFCURVE",
"326 600 CURVE SMOOTH",
"238 600 OFFCURVE",
"134 522 OFFCURVE",
"134 522 CURVE",
"109 569 LINE"
);
}
);
width = 642;
}
);
unicode = 004B;
},
{
glyphname = L;
lastChange = "2019-12-20 16:24:36 +0000";
layers = (
{
layerId = "B1BCE86B-A7FB-414A-B0E3-B1B1CA0865E7";
paths = (
{
closed = 1;
nodes = (
"30 367 OFFCURVE",
"56 393 OFFCURVE",
"89 393 CURVE SMOOTH",
"122 393 OFFCURVE",
"149 367 OFFCURVE",
"149 334 CURVE SMOOTH",
"149 302 OFFCURVE",
"122 275 OFFCURVE",
"89 275 CURVE SMOOTH",
"56 275 OFFCURVE",
"30 302 OFFCURVE",
"30 334 CURVE SMOOTH"
);
},
{
closed = 1;
nodes = (
"67 324 OFFCURVE",
"76 315 OFFCURVE",
"87 315 CURVE SMOOTH",
"99 315 OFFCURVE",
"108 324 OFFCURVE",
"108 336 CURVE SMOOTH",
"108 347 OFFCURVE",
"99 357 OFFCURVE",
"87 357 CURVE SMOOTH",
"76 357 OFFCURVE",
"67 347 OFFCURVE",
"67 336 CURVE SMOOTH"
);
},
{
closed = 1;
nodes = (
"283 581 LINE",
"323 544 LINE",
"131 340 LINE",
"91 377 LINE"
);
},
{
closed = 1;
nodes = (
"128 364 LINE",
"458 364 LINE",
"458 304 LINE",
"128 304 LINE"
);
},
{
closed = 1;
nodes = (
"455 325 LINE",
"494 287 LINE",
"225 1 LINE",
"185 38 LINE"
);
},
{
closed = 1;
nodes = (
"271 625 OFFCURVE",
"298 651 OFFCURVE",
"331 651 CURVE SMOOTH",
"364 651 OFFCURVE",
"391 625 OFFCURVE",
"391 593 CURVE SMOOTH",
"391 560 OFFCURVE",
"364 534 OFFCURVE",
"331 534 CURVE SMOOTH",
"298 534 OFFCURVE",
"271 560 OFFCURVE",
"271 593 CURVE SMOOTH"
);
},
{
closed = 1;
nodes = (
"308 582 OFFCURVE",
"318 573 OFFCURVE",
"329 573 CURVE SMOOTH",
"340 573 OFFCURVE",
"350 582 OFFCURVE",
"350 594 CURVE SMOOTH",
"350 605 OFFCURVE",
"340 615 OFFCURVE",
"329 615 CURVE SMOOTH",
"318 615 OFFCURVE",
"308 605 OFFCURVE",
"308 594 CURVE SMOOTH"
);
},
{
closed = 1;
nodes = (
"440 369 OFFCURVE",
"466 392 OFFCURVE",
"499 392 CURVE SMOOTH",
"532 392 OFFCURVE",
"559 367 OFFCURVE",
"559 334 CURVE SMOOTH",
"559 302 OFFCURVE",
"532 274 OFFCURVE",
"499 274 CURVE SMOOTH",
"466 274 OFFCURVE",
"440 304 OFFCURVE",
"440 336 CURVE SMOOTH"
);
},
{
closed = 1;
nodes = (
"478 322 OFFCURVE",
"487 313 OFFCURVE",
"499 313 CURVE SMOOTH",
"510 313 OFFCURVE",
"519 322 OFFCURVE",
"519 334 CURVE SMOOTH",
"519 345 OFFCURVE",
"510 355 OFFCURVE",
"499 355 CURVE SMOOTH",
"487 355 OFFCURVE",
"478 345 OFFCURVE",
"478 334 CURVE SMOOTH"
);
}
);
width = 589;
}
);
unicode = 004C;
},
{
glyphname = M;
lastChange = "2019-12-20 16:26:25 +0000";
layers = (
{
layerId = "B1BCE86B-A7FB-414A-B0E3-B1B1CA0865E7";
paths = (
{
closed = 1;
nodes = (
"30 626 OFFCURVE",
"57 653 OFFCURVE",
"90 653 CURVE SMOOTH",
"123 653 OFFCURVE",
"149 626 OFFCURVE",
"149 594 CURVE SMOOTH",
"149 561 OFFCURVE",
"123 535 OFFCURVE",
"90 535 CURVE SMOOTH",
"57 535 OFFCURVE",
"30 561 OFFCURVE",
"30 594 CURVE SMOOTH"
);
},
{
closed = 1;
nodes = (
"389 574 LINE",
"437 544 LINE",
"105 9 LINE",
"57 39 LINE"
);
},
{
closed = 1;
nodes = (
"67 583 OFFCURVE",
"76 574 OFFCURVE",
"88 574 CURVE SMOOTH",
"99 574 OFFCURVE",
"108 583 OFFCURVE",
"108 595 CURVE SMOOTH",
"108 607 OFFCURVE",
"99 616 OFFCURVE",
"88 616 CURVE SMOOTH",
"76 616 OFFCURVE",
"67 607 OFFCURVE",
"67 595 CURVE SMOOTH"
);
},
{
closed = 1;
nodes = (
"145 578 LINE",
"320 401 LINE",
"282 363 LINE",
"107 539 LINE"
);
},
{
closed = 1;
nodes = (
"377 92 OFFCURVE",
"404 119 OFFCURVE",
"437 119 CURVE SMOOTH",
"470 119 OFFCURVE",
"496 92 OFFCURVE",
"496 60 CURVE SMOOTH",
"496 27 OFFCURVE",
"470 1 OFFCURVE",
"437 1 CURVE SMOOTH",
"404 1 OFFCURVE",
"377 27 OFFCURVE",
"377 60 CURVE SMOOTH"
);
},
{
closed = 1;
nodes = (
"377 626 OFFCURVE",
"404 652 OFFCURVE",
"437 652 CURVE SMOOTH",
"470 652 OFFCURVE",
"497 626 OFFCURVE",
"497 593 CURVE SMOOTH",
"497 560 OFFCURVE",
"470 534 OFFCURVE",
"437 534 CURVE SMOOTH",
"404 534 OFFCURVE",
"377 560 OFFCURVE",
"377 593 CURVE SMOOTH"
);
},
{
closed = 1;
nodes = (
"408 566 LINE",
"463 566 LINE",
"463 97 LINE",
"408 97 LINE"
);
},
{
closed = 1;
nodes = (
"415 583 OFFCURVE",
"424 573 OFFCURVE",
"435 573 CURVE SMOOTH",
"447 573 OFFCURVE",
"456 583 OFFCURVE",
"456 594 CURVE SMOOTH",
"456 606 OFFCURVE",
"447 615 OFFCURVE",
"435 615 CURVE SMOOTH",
"424 615 OFFCURVE",
"415 606 OFFCURVE",
"415 594 CURVE SMOOTH"
);
},
{
closed = 1;
nodes = (
"417 51 OFFCURVE",
"426 41 OFFCURVE",
"437 41 CURVE SMOOTH",
"449 41 OFFCURVE",
"458 51 OFFCURVE",
"458 62 CURVE SMOOTH",
"458 74 OFFCURVE",
"449 83 OFFCURVE",
"437 83 CURVE SMOOTH",
"426 83 OFFCURVE",
"417 74 OFFCURVE",
"417 62 CURVE SMOOTH"
);
}
);
width = 527;
}
);
unicode = 004D;
},
{
glyphname = N;
lastChange = "2019-12-20 16:29:28 +0000";
layers = (
{
layerId = "B1BCE86B-A7FB-414A-B0E3-B1B1CA0865E7";
paths = (
{
closed = 1;
nodes = (
"30 615 OFFCURVE",
"57 642 OFFCURVE",
"90 642 CURVE SMOOTH",
"123 642 OFFCURVE",
"149 615 OFFCURVE",
"149 583 CURVE SMOOTH",
"149 550 OFFCURVE",
"123 524 OFFCURVE",
"90 524 CURVE SMOOTH",
"57 524 OFFCURVE",
"30 550 OFFCURVE",
"30 583 CURVE SMOOTH"
);
},
{
closed = 1;
nodes = (
"33 92 OFFCURVE",
"60 118 OFFCURVE",
"93 118 CURVE SMOOTH",
"126 118 OFFCURVE",
"153 92 OFFCURVE",
"153 60 CURVE SMOOTH",
"153 27 OFFCURVE",
"126 1 OFFCURVE",
"93 1 CURVE SMOOTH",
"60 1 OFFCURVE",
"33 27 OFFCURVE",
"33 60 CURVE SMOOTH"
);
},
{
closed = 1;
nodes = (
"67 572 OFFCURVE",
"76 563 OFFCURVE",
"88 563 CURVE SMOOTH",
"99 563 OFFCURVE",
"108 572 OFFCURVE",
"108 584 CURVE SMOOTH",
"108 596 OFFCURVE",
"99 605 OFFCURVE",
"88 605 CURVE SMOOTH",
"76 605 OFFCURVE",
"67 596 OFFCURVE",
"67 584 CURVE SMOOTH"
);
},
{
closed = 1;
nodes = (
"73 50 OFFCURVE",
"82 41 OFFCURVE",
"94 41 CURVE SMOOTH",
"105 41 OFFCURVE",
"114 50 OFFCURVE",
"114 62 CURVE SMOOTH",
"114 74 OFFCURVE",
"105 83 OFFCURVE",
"94 83 CURVE SMOOTH",
"82 83 OFFCURVE",
"73 74 OFFCURVE",
"73 62 CURVE SMOOTH"
);
},
{
closed = 1;
nodes = (
"145 567 LINE",
"388 322 LINE",
"350 283 LINE",
"107 528 LINE"
);
},
{
closed = 1;
nodes = (
"350 362 LINE",
"389 324 LINE",
"149 74 LINE",
"109 111 LINE"
);
}
);
width = 419;
}
);
unicode = 004E;
},
{
glyphname = O;
lastChange = "2019-12-20 16:30:40 +0000";
layers = (
{
layerId = "B1BCE86B-A7FB-414A-B0E3-B1B1CA0865E7";
paths = (
{
closed = 1;
nodes = (
"30 623 OFFCURVE",
"57 650 OFFCURVE",
"90 650 CURVE SMOOTH",
"123 650 OFFCURVE",
"149 623 OFFCURVE",
"149 591 CURVE SMOOTH",
"149 558 OFFCURVE",
"123 532 OFFCURVE",
"90 532 CURVE SMOOTH",
"57 532 OFFCURVE",
"30 558 OFFCURVE",
"30 591 CURVE SMOOTH"
);
},
{
closed = 1;
nodes = (
"67 580 OFFCURVE",
"76 571 OFFCURVE",
"88 571 CURVE SMOOTH",
"99 571 OFFCURVE",
"108 580 OFFCURVE",
"108 592 CURVE SMOOTH",
"108 604 OFFCURVE",
"99 613 OFFCURVE",
"88 613 CURVE SMOOTH",
"76 613 OFFCURVE",
"67 604 OFFCURVE",
"67 592 CURVE SMOOTH"
);
},
{
closed = 1;
nodes = (
"349 413 LINE",
"394 381 LINE",
"122 1 LINE",
"77 33 LINE"
);
},
{
closed = 1;
nodes = (
"133 594 LINE",
"401 403 LINE",
"369 359 LINE",
"102 549 LINE"
);
},
{
closed = 1;
nodes = (
"405 575 LINE",
"456 556 LINE",
"393 381 LINE",
"342 400 LINE"
);
},
{
closed = 1;
nodes = (
"376 629 OFFCURVE",
"403 655 OFFCURVE",
"436 655 CURVE SMOOTH",
"469 655 OFFCURVE",
"496 629 OFFCURVE",
"496 596 CURVE SMOOTH",
"496 564 OFFCURVE",
"469 537 OFFCURVE",
"436 537 CURVE SMOOTH",
"403 537 OFFCURVE",
"376 564 OFFCURVE",
"376 596 CURVE SMOOTH"
);
},
{
closed = 1;
nodes = (
"413 586 OFFCURVE",
"423 576 OFFCURVE",
"434 576 CURVE SMOOTH",
"445 576 OFFCURVE",
"455 586 OFFCURVE",
"455 597 CURVE SMOOTH",
"455 609 OFFCURVE",
"445 619 OFFCURVE",
"434 619 CURVE SMOOTH",
"423 619 OFFCURVE",
"413 609 OFFCURVE",
"413 597 CURVE SMOOTH"
);
}
);
width = 526;
}
);
unicode = 004F;
},
{
glyphname = P;
lastChange = "2019-12-22 14:37:01 +0000";
layers = (
{
layerId = "B1BCE86B-A7FB-414A-B0E3-B1B1CA0865E7";
paths = (
{
closed = 1;
nodes = (
"30 563 OFFCURVE",
"119 658 OFFCURVE",
"199 658 CURVE SMOOTH",
"279 658 OFFCURVE",
"353 589 OFFCURVE",
"353 434 CURVE SMOOTH",
"353 328 OFFCURVE",
"233 90 OFFCURVE",
"233 90 CURVE",
"185 114 LINE",
"185 114 OFFCURVE",
"301 347 OFFCURVE",
"301 427 CURVE SMOOTH",
"301 492 OFFCURVE",
"279 589 OFFCURVE",
"199 591 CURVE SMOOTH",
"119 593 OFFCURVE",
"89 526 OFFCURVE",
"89 494 CURVE SMOOTH",
"89 461 OFFCURVE",
"106 403 OFFCURVE",
"146 403 CURVE SMOOTH",
"186 403 OFFCURVE",
"179 437 OFFCURVE",
"179 453 CURVE SMOOTH",
"179 472 OFFCURVE",
"197 476 OFFCURVE",
"207 476 CURVE SMOOTH",
"215 476 OFFCURVE",
"235 476 OFFCURVE",
"235 451 CURVE SMOOTH",
"235 388 OFFCURVE",
"196 337 OFFCURVE",
"146 337 CURVE SMOOTH",
"96 337 OFFCURVE",
"30 417 OFFCURVE",
"30 492 CURVE SMOOTH"
);
},
{
closed = 1;
nodes = (
"139 93 OFFCURVE",
"165 119 OFFCURVE",
"198 119 CURVE SMOOTH",
"231 119 OFFCURVE",
"257 93 OFFCURVE",
"257 60 CURVE SMOOTH",
"257 28 OFFCURVE",
"231 1 OFFCURVE",
"198 1 CURVE SMOOTH",
"165 1 OFFCURVE",
"139 28 OFFCURVE",
"139 60 CURVE SMOOTH"
);
},
{
closed = 1;
nodes = (
"177 49 OFFCURVE",
"186 40 OFFCURVE",
"197 40 CURVE SMOOTH",
"209 40 OFFCURVE",
"218 49 OFFCURVE",
"218 61 CURVE SMOOTH",
"218 73 OFFCURVE",
"209 82 OFFCURVE",
"197 82 CURVE SMOOTH",
"186 82 OFFCURVE",
"177 73 OFFCURVE",
"177 61 CURVE SMOOTH"
);
}
);
width = 383;
}
);
unicode = 0050;
},
{
glyphname = Q;
lastChange = "2019-12-22 14:41:34 +0000";
layers = (
{
layerId = "B1BCE86B-A7FB-414A-B0E3-B1B1CA0865E7";
paths = (
{
closed = 1;
nodes = (
"30 616 OFFCURVE",
"56 642 OFFCURVE",
"89 642 CURVE SMOOTH",
"122 642 OFFCURVE",
"149 616 OFFCURVE",
"149 583 CURVE SMOOTH",
"149 550 OFFCURVE",
"122 524 OFFCURVE",
"89 524 CURVE SMOOTH",
"56 524 OFFCURVE",
"30 550 OFFCURVE",
"30 583 CURVE SMOOTH"
);
},
{
closed = 1;
nodes = (
"67 573 OFFCURVE",
"76 563 OFFCURVE",
"88 563 CURVE SMOOTH",
"99 563 OFFCURVE",
"108 573 OFFCURVE",
"108 584 CURVE SMOOTH",
"108 596 OFFCURVE",
"99 605 OFFCURVE",
"88 605 CURVE SMOOTH",
"76 605 OFFCURVE",
"67 596 OFFCURVE",
"67 584 CURVE SMOOTH"
);
},
{
closed = 1;
nodes = (
"212 93 OFFCURVE",
"238 119 OFFCURVE",
"271 119 CURVE SMOOTH",
"304 119 OFFCURVE",
"331 93 OFFCURVE",
"331 60 CURVE SMOOTH",
"331 28 OFFCURVE",
"304 1 OFFCURVE",
"271 1 CURVE SMOOTH",
"238 1 OFFCURVE",
"212 28 OFFCURVE",
"212 60 CURVE SMOOTH"
);
},
{
closed = 1;
nodes = (
"252 51 OFFCURVE",
"261 42 OFFCURVE",
"272 42 CURVE SMOOTH",
"284 42 OFFCURVE",
"293 51 OFFCURVE",
"293 63 CURVE SMOOTH",
"293 74 OFFCURVE",
"284 84 OFFCURVE",
"272 84 CURVE SMOOTH",
"261 84 OFFCURVE",
"252 74 OFFCURVE",
"252 63 CURVE SMOOTH"
);
},
{
closed = 1;
nodes = (
"408 537 OFFCURVE",
"434 564 OFFCURVE",
"467 564 CURVE SMOOTH",
"500 564 OFFCURVE",
"527 537 OFFCURVE",
"527 505 CURVE SMOOTH",
"527 472 OFFCURVE",
"500 446 OFFCURVE",
"467 446 CURVE SMOOTH",
"434 446 OFFCURVE",
"408 472 OFFCURVE",
"408 505 CURVE SMOOTH"
);
},
{
closed = 1;
nodes = (
"445 494 OFFCURVE",
"454 485 OFFCURVE",
"466 485 CURVE SMOOTH",
"477 485 OFFCURVE",
"486 494 OFFCURVE",
"486 506 CURVE SMOOTH",
"486 518 OFFCURVE",
"477 527 OFFCURVE",
"466 527 CURVE SMOOTH",
"454 527 OFFCURVE",
"445 518 OFFCURVE",
"445 506 CURVE SMOOTH"
);
},
{
closed = 1;
nodes = (
"244 613 LINE",
"299 613 LINE",
"299 109 LINE",
"244 109 LINE"
);
},
{
closed = 1;
nodes = (
"109 623 OFFCURVE",
"209 666 OFFCURVE",
"258 656 CURVE SMOOTH",
"317 644 OFFCURVE",
"460 547 OFFCURVE",
"460 547 CURVE",
"432 506 LINE",
"433 510 OFFCURVE",
"321 581 OFFCURVE",
"270 590 CURVE SMOOTH",
"224 598 OFFCURVE",
"134 563 OFFCURVE",
"134 563 CURVE",
"109 623 LINE"
);
}
);
width = 557;
}
);
unicode = 0051;
},
{
glyphname = R;
lastChange = "2019-12-22 14:44:17 +0000";
layers = (
{
layerId = "B1BCE86B-A7FB-414A-B0E3-B1B1CA0865E7";
paths = (
{
closed = 1;
nodes = (
"30 597 OFFCURVE",
"57 624 OFFCURVE",
"90 624 CURVE SMOOTH",
"123 624 OFFCURVE",
"149 597 OFFCURVE",
"149 565 CURVE SMOOTH",
"149 532 OFFCURVE",
"123 506 OFFCURVE",
"90 506 CURVE SMOOTH",
"57 506 OFFCURVE",
"30 532 OFFCURVE",
"30 565 CURVE SMOOTH"
);
},
{
closed = 1;
nodes = (
"67 554 OFFCURVE",
"76 545 OFFCURVE",
"88 545 CURVE SMOOTH",
"99 545 OFFCURVE",
"108 554 OFFCURVE",
"108 566 CURVE SMOOTH",
"108 578 OFFCURVE",
"99 587 OFFCURVE",
"88 587 CURVE SMOOTH",
"76 587 OFFCURVE",
"67 578 OFFCURVE",
"67 566 CURVE SMOOTH"
);
},
{
closed = 1;
nodes = (
"137 593 LINE",
"673 593 LINE",
"673 538 LINE",
"137 538 LINE"
);
},
{
closed = 1;
nodes = (
"622 559 LINE",
"673 539 LINE",
"468 1 LINE",
"417 20 LINE"
);
}
);
width = 703;
}
);
unicode = 0052;
},
{
glyphname = S;
lastChange = "2019-12-23 14:54:39 +0000";
layers = (
{
layerId = "B1BCE86B-A7FB-414A-B0E3-B1B1CA0865E7";
paths = (
{
closed = 1;
nodes = (
"28 519 OFFCURVE",
"77 560 OFFCURVE",
"77 560 CURVE",
"122 535 LINE",
"122 535 OFFCURVE",
"95 502 OFFCURVE",
"95 445 CURVE SMOOTH",
"95 395 OFFCURVE",
"95 341 OFFCURVE",
"97 273 CURVE SMOOTH",
"100 165 OFFCURVE",
"194 70 OFFCURVE",
"248 69 CURVE SMOOTH",
"300 68 OFFCURVE",
"311 68 OFFCURVE",
"358 69 CURVE SMOOTH",
"415 70 OFFCURVE",
"500 165 OFFCURVE",
"503 273 CURVE SMOOTH",
"505 339 OFFCURVE",
"503 394 OFFCURVE",
"503 445 CURVE SMOOTH",
"503 496 OFFCURVE",
"468 535 OFFCURVE",
"468 538 CURVE",
"517 560 LINE",
"517 562 LINE",
"517 562 OFFCURVE",
"571 508 OFFCURVE",
"569 415 CURVE SMOOTH",
"568 354 OFFCURVE",
"571 349 OFFCURVE",
"570 270 CURVE SMOOTH",
"569 164 OFFCURVE",
"453 3 OFFCURVE",
"363 3 CURVE SMOOTH",
"313 3 OFFCURVE",
"293 3 OFFCURVE",
"243 3 CURVE SMOOTH",
"153 3 OFFCURVE",
"37 158 OFFCURVE",
"32 270 CURVE SMOOTH",
"28 356 OFFCURVE",
"31 362 OFFCURVE",
"30 415 CURVE SMOOTH"
);
},
{
closed = 1;
nodes = (
"58 619 OFFCURVE",
"85 646 OFFCURVE",
"118 646 CURVE SMOOTH",
"151 646 OFFCURVE",
"178 619 OFFCURVE",
"178 587 CURVE SMOOTH",
"178 554 OFFCURVE",
"151 528 OFFCURVE",
"118 528 CURVE SMOOTH",
"85 528 OFFCURVE",
"58 554 OFFCURVE",
"58 587 CURVE SMOOTH"
);
},
{
closed = 1;
nodes = (
"96 577 OFFCURVE",
"105 567 OFFCURVE",
"116 567 CURVE SMOOTH",
"128 567 OFFCURVE",
"137 577 OFFCURVE",
"137 588 CURVE SMOOTH",
"137 600 OFFCURVE",
"128 609 OFFCURVE",
"116 609 CURVE SMOOTH",
"105 609 OFFCURVE",
"96 600 OFFCURVE",
"96 588 CURVE SMOOTH"
);
},
{
closed = 1;
nodes = (
"151 619 LINE",
"439 619 LINE",
"439 558 LINE",
"151 558 LINE"
);
},
{
closed = 1;
nodes = (
"419 617 OFFCURVE",
"446 644 OFFCURVE",
"479 644 CURVE SMOOTH",
"512 644 OFFCURVE",
"539 617 OFFCURVE",
"539 585 CURVE SMOOTH",
"539 552 OFFCURVE",
"512 526 OFFCURVE",
"479 526 CURVE SMOOTH",
"446 526 OFFCURVE",
"419 552 OFFCURVE",
"419 585 CURVE SMOOTH"
);
},
{
closed = 1;
nodes = (
"456 574 OFFCURVE",
"466 565 OFFCURVE",
"477 565 CURVE SMOOTH",
"488 565 OFFCURVE",
"498 574 OFFCURVE",
"498 586 CURVE SMOOTH",
"498 598 OFFCURVE",
"488 607 OFFCURVE",
"477 607 CURVE SMOOTH",
"466 607 OFFCURVE",
"456 598 OFFCURVE",
"456 586 CURVE SMOOTH"
);
}
);
width = 600;
}
);
unicode = 0053;
},
{
glyphname = T;
lastChange = "2019-12-23 15:34:25 +0000";
layers = (
{
layerId = "B1BCE86B-A7FB-414A-B0E3-B1B1CA0865E7";
paths = (
{
closed = 1;
nodes = (
"30 627 OFFCURVE",
"57 654 OFFCURVE",
"90 654 CURVE SMOOTH",
"123 654 OFFCURVE",
"150 627 OFFCURVE",
"150 595 CURVE SMOOTH",
"150 562 OFFCURVE",
"123 536 OFFCURVE",
"90 536 CURVE SMOOTH",
"57 536 OFFCURVE",
"30 562 OFFCURVE",
"30 595 CURVE SMOOTH"
);
},
{
closed = 1;
nodes = (
"68 584 OFFCURVE",
"77 575 OFFCURVE",
"88 575 CURVE SMOOTH",
"100 575 OFFCURVE",
"109 584 OFFCURVE",
"109 596 CURVE SMOOTH",
"109 608 OFFCURVE",
"100 617 OFFCURVE",
"88 617 CURVE SMOOTH",
"77 617 OFFCURVE",
"68 608 OFFCURVE",
"68 596 CURVE SMOOTH"
);
},
{
closed = 1;
nodes = (
"130 622 LINE",
"404 622 LINE",
"404 567 LINE",
"130 567 LINE"
);
},
{
closed = 1;
nodes = (
"208 93 OFFCURVE",
"234 119 OFFCURVE",
"267 119 CURVE SMOOTH",
"300 119 OFFCURVE",
"327 93 OFFCURVE",
"327 60 CURVE SMOOTH",
"327 28 OFFCURVE",
"300 1 OFFCURVE",
"267 1 CURVE SMOOTH",
"234 1 OFFCURVE",
"208 28 OFFCURVE",
"208 60 CURVE SMOOTH"
);
},
{
closed = 1;
nodes = (
"241 606 LINE",
"296 606 LINE",
"296 101 LINE",
"241 101 LINE"
);
},
{
closed = 1;
nodes = (
"248 51 OFFCURVE",
"257 42 OFFCURVE",
"268 42 CURVE SMOOTH",
"280 42 OFFCURVE",
"289 51 OFFCURVE",
"289 63 CURVE SMOOTH",
"289 74 OFFCURVE",
"280 84 OFFCURVE",
"268 84 CURVE SMOOTH",
"257 84 OFFCURVE",
"248 74 OFFCURVE",
"248 63 CURVE SMOOTH"
);
},
{
closed = 1;
nodes = (
"383 625 OFFCURVE",
"410 652 OFFCURVE",
"443 652 CURVE SMOOTH",
"476 652 OFFCURVE",
"503 625 OFFCURVE",
"503 593 CURVE SMOOTH",
"503 560 OFFCURVE",
"476 534 OFFCURVE",
"443 534 CURVE SMOOTH",
"410 534 OFFCURVE",
"383 560 OFFCURVE",
"383 593 CURVE SMOOTH"
);
},
{
closed = 1;
nodes = (
"420 583 OFFCURVE",
"430 573 OFFCURVE",
"441 573 CURVE SMOOTH",
"452 573 OFFCURVE",
"462 583 OFFCURVE",
"462 594 CURVE SMOOTH",
"462 606 OFFCURVE",
"452 615 OFFCURVE",
"441 615 CURVE SMOOTH",
"430 615 OFFCURVE",
"420 606 OFFCURVE",
"420 594 CURVE SMOOTH"
);
}
);
width = 533;
}
);
unicode = 0054;
},
{
glyphname = U;
lastChange = "2019-12-23 15:41:33 +0000";
layers = (
{
layerId = "B1BCE86B-A7FB-414A-B0E3-B1B1CA0865E7";
paths = (
{
closed = 1;
nodes = (
"30 577 OFFCURVE",
"57 603 OFFCURVE",
"90 603 CURVE SMOOTH",
"123 603 OFFCURVE",
"150 577 OFFCURVE",
"150 544 CURVE SMOOTH",
"150 512 OFFCURVE",
"123 485 OFFCURVE",
"90 485 CURVE SMOOTH",
"57 485 OFFCURVE",
"30 512 OFFCURVE",
"30 544 CURVE SMOOTH"
);
},
{
closed = 1;
nodes = (
"62 506 LINE",
"117 506 LINE",
"117 1 LINE",
"62 1 LINE"
);
},
{
closed = 1;
nodes = (
"68 534 OFFCURVE",
"77 525 OFFCURVE",
"88 525 CURVE SMOOTH",
"100 525 OFFCURVE",
"109 534 OFFCURVE",
"109 546 CURVE SMOOTH",
"109 557 OFFCURVE",
"100 567 OFFCURVE",
"88 567 CURVE SMOOTH",
"77 567 OFFCURVE",
"68 557 OFFCURVE",
"68 546 CURVE SMOOTH"
);
}
);
width = 180;
}
);
unicode = 0055;
},
{
glyphname = V;
lastChange = "2019-12-23 15:41:56 +0000";
layers = (
{
layerId = "B1BCE86B-A7FB-414A-B0E3-B1B1CA0865E7";
paths = (
{
closed = 1;
nodes = (
"30 577 OFFCURVE",
"57 603 OFFCURVE",
"90 603 CURVE SMOOTH",
"123 603 OFFCURVE",
"150 577 OFFCURVE",
"150 544 CURVE SMOOTH",
"150 512 OFFCURVE",
"123 485 OFFCURVE",
"90 485 CURVE SMOOTH",
"57 485 OFFCURVE",
"30 512 OFFCURVE",
"30 544 CURVE SMOOTH"
);
},
{
closed = 1;
nodes = (
"62 506 LINE",
"117 506 LINE",
"117 1 LINE",
"62 1 LINE"
);
},
{
closed = 1;
nodes = (
"68 534 OFFCURVE",
"77 525 OFFCURVE",
"88 525 CURVE SMOOTH",
"100 525 OFFCURVE",
"109 534 OFFCURVE",
"109 546 CURVE SMOOTH",
"109 557 OFFCURVE",
"100 567 OFFCURVE",
"88 567 CURVE SMOOTH",
"77 567 OFFCURVE",
"68 557 OFFCURVE",
"68 546 CURVE SMOOTH"
);
}
);
width = 180;
}
);
unicode = 0056;
},
{
glyphname = W;
lastChange = "2019-12-23 15:42:08 +0000";
layers = (
{
layerId = "B1BCE86B-A7FB-414A-B0E3-B1B1CA0865E7";
paths = (
{
closed = 1;
nodes = (
"30 577 OFFCURVE",
"57 603 OFFCURVE",
"90 603 CURVE SMOOTH",
"123 603 OFFCURVE",
"150 577 OFFCURVE",
"150 544 CURVE SMOOTH",
"150 512 OFFCURVE",
"123 485 OFFCURVE",
"90 485 CURVE SMOOTH",
"57 485 OFFCURVE",
"30 512 OFFCURVE",
"30 544 CURVE SMOOTH"
);
},
{
closed = 1;
nodes = (
"62 506 LINE",
"117 506 LINE",
"117 1 LINE",
"62 1 LINE"
);
},
{
closed = 1;
nodes = (
"68 534 OFFCURVE",
"77 525 OFFCURVE",
"88 525 CURVE SMOOTH",
"100 525 OFFCURVE",
"109 534 OFFCURVE",
"109 546 CURVE SMOOTH",
"109 557 OFFCURVE",
"100 567 OFFCURVE",
"88 567 CURVE SMOOTH",
"77 567 OFFCURVE",
"68 557 OFFCURVE",
"68 546 CURVE SMOOTH"
);
}
);
width = 180;
}
);
unicode = 0057;
},
{
glyphname = X;
lastChange = "2019-12-23 15:54:18 +0000";
layers = (
{
layerId = "B1BCE86B-A7FB-414A-B0E3-B1B1CA0865E7";
paths = (
{
closed = 1;
nodes = (
"30 485 OFFCURVE",
"80 556 OFFCURVE",
"80 556 CURVE",
"128 542 LINE",
"128 542 OFFCURVE",
"93 450 OFFCURVE",
"93 340 CURVE SMOOTH",
"93 253 OFFCURVE",
"130 65 OFFCURVE",
"305 64 CURVE SMOOTH",
"480 63 OFFCURVE",
"517 253 OFFCURVE",
"517 340 CURVE SMOOTH",
"517 450 OFFCURVE",
"475 545 OFFCURVE",
"475 545 CURVE",
"523 562 LINE",
"523 562 LINE",
"523 562 OFFCURVE",
"569 485 OFFCURVE",
"569 345 CURVE SMOOTH",
"569 94 OFFCURVE",
"434 0 OFFCURVE",
"304 0 CURVE SMOOTH",
"174 0 OFFCURVE",
"30 128 OFFCURVE",
"30 345 CURVE SMOOTH"
);
},
{
closed = 1;
nodes = (
"63 617 OFFCURVE",
"90 643 OFFCURVE",
"123 643 CURVE SMOOTH",
"156 643 OFFCURVE",
"183 617 OFFCURVE",
"183 584 CURVE SMOOTH",
"183 551 OFFCURVE",
"156 525 OFFCURVE",
"123 525 CURVE SMOOTH",
"90 525 OFFCURVE",
"63 551 OFFCURVE",
"63 584 CURVE SMOOTH"
);
},
{
closed = 1;
nodes = (
"101 574 OFFCURVE",
"110 564 OFFCURVE",
"121 564 CURVE SMOOTH",
"133 564 OFFCURVE",
"142 574 OFFCURVE",
"142 585 CURVE SMOOTH",
"142 597 OFFCURVE",
"133 606 OFFCURVE",
"121 606 CURVE SMOOTH",
"110 606 OFFCURVE",
"101 597 OFFCURVE",
"101 585 CURVE SMOOTH"
);
},
{
closed = 1;
nodes = (
"248 620 OFFCURVE",
"275 646 OFFCURVE",
"308 646 CURVE SMOOTH",
"341 646 OFFCURVE",
"367 620 OFFCURVE",
"367 587 CURVE SMOOTH",
"367 555 OFFCURVE",
"341 528 OFFCURVE",
"308 528 CURVE SMOOTH",
"275 528 OFFCURVE",
"248 555 OFFCURVE",
"248 587 CURVE SMOOTH"
);
},
{
closed = 1;
nodes = (
"278 547 LINE",
"333 547 LINE",
"333 43 LINE",
"278 43 LINE"
);
},
{
closed = 1;
nodes = (
"286 576 OFFCURVE",
"295 567 OFFCURVE",
"307 567 CURVE SMOOTH",
"318 567 OFFCURVE",
"327 576 OFFCURVE",
"327 588 CURVE SMOOTH",
"327 600 OFFCURVE",
"318 609 OFFCURVE",
"307 609 CURVE SMOOTH",
"295 609 OFFCURVE",
"286 600 OFFCURVE",
"286 588 CURVE SMOOTH"
);
},
{
closed = 1;
nodes = (
"426 620 OFFCURVE",
"452 647 OFFCURVE",
"485 647 CURVE SMOOTH",
"518 647 OFFCURVE",
"545 620 OFFCURVE",
"545 588 CURVE SMOOTH",
"545 555 OFFCURVE",
"518 529 OFFCURVE",
"485 529 CURVE SMOOTH",
"452 529 OFFCURVE",
"426 555 OFFCURVE",
"426 588 CURVE SMOOTH"
);
},
{
closed = 1;
nodes = (
"463 577 OFFCURVE",
"472 568 OFFCURVE",
"483 568 CURVE SMOOTH",
"495 568 OFFCURVE",
"504 577 OFFCURVE",
"504 589 CURVE SMOOTH",
"504 601 OFFCURVE",
"495 610 OFFCURVE",
"483 610 CURVE SMOOTH",
"472 610 OFFCURVE",
"463 601 OFFCURVE",
"463 589 CURVE SMOOTH"
);
}
);
width = 599;
}
);
unicode = 0058;
},
{
glyphname = Y;
lastChange = "2019-12-20 16:16:55 +0000";
layers = (
{
layerId = "B1BCE86B-A7FB-414A-B0E3-B1B1CA0865E7";
paths = (
{
closed = 1;
nodes = (
"30 93 OFFCURVE",
"57 119 OFFCURVE",
"90 119 CURVE SMOOTH",
"123 119 OFFCURVE",
"150 93 OFFCURVE",
"150 60 CURVE SMOOTH",
"150 28 OFFCURVE",
"123 1 OFFCURVE",
"90 1 CURVE SMOOTH",
"57 1 OFFCURVE",
"30 28 OFFCURVE",
"30 60 CURVE SMOOTH"
);
},
{
closed = 1;
nodes = (
"70 51 OFFCURVE",
"79 42 OFFCURVE",
"91 42 CURVE SMOOTH",
"102 42 OFFCURVE",
"111 51 OFFCURVE",
"111 63 CURVE SMOOTH",
"111 75 OFFCURVE",
"102 84 OFFCURVE",
"91 84 CURVE SMOOTH",
"79 84 OFFCURVE",
"70 75 OFFCURVE",
"70 63 CURVE SMOOTH"
);
},
{
closed = 1;
nodes = (
"315 587 LINE",
"364 563 LINE",
"134 82 LINE",
"85 106 LINE"
);
},
{
closed = 1;
nodes = (
"139 92 LINE",
"587 92 LINE",
"587 31 LINE",
"139 31 LINE"
);
},
{
closed = 1;
nodes = (
"300 629 OFFCURVE",
"327 655 OFFCURVE",
"360 655 CURVE SMOOTH",
"393 655 OFFCURVE",
"419 629 OFFCURVE",
"419 596 CURVE SMOOTH",
"419 564 OFFCURVE",
"393 537 OFFCURVE",
"360 537 CURVE SMOOTH",
"327 537 OFFCURVE",
"300 564 OFFCURVE",
"300 596 CURVE SMOOTH"
);
},
{
closed = 1;
nodes = (
"337 586 OFFCURVE",
"346 577 OFFCURVE",
"358 577 CURVE SMOOTH",
"369 577 OFFCURVE",
"378 586 OFFCURVE",
"378 598 CURVE SMOOTH",
"378 609 OFFCURVE",
"369 619 OFFCURVE",
"358 619 CURVE SMOOTH",
"346 619 OFFCURVE",
"337 609 OFFCURVE",
"337 598 CURVE SMOOTH"
);
},
{
closed = 1;
nodes = (
"402 586 LINE",
"635 107 LINE",
"586 83 LINE",
"353 563 LINE"
);
},
{
closed = 1;
nodes = (
"568 93 OFFCURVE",
"594 121 OFFCURVE",
"627 121 CURVE",
"627 118 LINE",
"660 118 OFFCURVE",
"687 93 OFFCURVE",
"687 60 CURVE SMOOTH",
"687 28 OFFCURVE",
"660 1 OFFCURVE",
"627 1 CURVE SMOOTH",
"594 1 OFFCURVE",
"568 28 OFFCURVE",
"568 60 CURVE SMOOTH"
);
},
{
closed = 1;
nodes = (
"606 49 OFFCURVE",
"615 36 OFFCURVE",
"627 36 CURVE SMOOTH",
"638 36 OFFCURVE",
"647 49 OFFCURVE",
"647 60 CURVE SMOOTH",
"647 72 OFFCURVE",
"638 81 OFFCURVE",
"627 84 CURVE",
"615 84 OFFCURVE",
"606 72 OFFCURVE",
"606 60 CURVE SMOOTH"
);
}
);
width = 717;
}
);
unicode = 0059;
},
{
glyphname = Z;
lastChange = "2019-12-20 16:10:49 +0000";
layers = (
{
layerId = "B1BCE86B-A7FB-414A-B0E3-B1B1CA0865E7";
paths = (
{
closed = 1;
nodes = (
"30 626 OFFCURVE",
"57 652 OFFCURVE",
"90 652 CURVE SMOOTH",
"123 652 OFFCURVE",
"149 626 OFFCURVE",
"149 593 CURVE SMOOTH",
"149 561 OFFCURVE",
"123 534 OFFCURVE",
"90 534 CURVE SMOOTH",
"57 534 OFFCURVE",
"30 561 OFFCURVE",
"30 593 CURVE SMOOTH"
);
},
{
closed = 1;
nodes = (
"50 56 LINE",
"663 56 LINE",
"624 17 LINE",
"106 539 LINE",
"145 577 LINE",
"663 56 LINE",
"663 1 LINE",
"50 1 LINE"
);
},
{
closed = 1;
nodes = (
"68 583 OFFCURVE",
"77 573 OFFCURVE",
"88 573 CURVE SMOOTH",
"100 573 OFFCURVE",
"108 583 OFFCURVE",
"108 595 CURVE SMOOTH",
"108 606 OFFCURVE",
"100 616 OFFCURVE",
"88 616 CURVE SMOOTH",
"77 616 OFFCURVE",
"68 606 OFFCURVE",
"68 595 CURVE SMOOTH"
);
},
{
closed = 1;
nodes = (
"448 585 LINE",
"488 548 LINE",
"313 362 LINE",
"273 399 LINE"
);
},
{
closed = 1;
nodes = (
"441 625 OFFCURVE",
"467 651 OFFCURVE",
"500 651 CURVE SMOOTH",
"533 651 OFFCURVE",
"560 625 OFFCURVE",
"560 592 CURVE SMOOTH",
"560 559 OFFCURVE",
"533 532 OFFCURVE",
"500 532 CURVE SMOOTH",
"467 532 OFFCURVE",
"441 559 OFFCURVE",
"441 592 CURVE SMOOTH"
);
},
{
closed = 1;
nodes = (
"478 582 OFFCURVE",
"487 572 OFFCURVE",
"499 572 CURVE SMOOTH",
"510 572 OFFCURVE",
"519 582 OFFCURVE",
"519 593 CURVE SMOOTH",
"519 605 OFFCURVE",
"510 614 OFFCURVE",
"499 614 CURVE SMOOTH",
"487 614 OFFCURVE",
"478 605 OFFCURVE",
"478 593 CURVE SMOOTH"
);
}
);
width = 693;
}
);
unicode = 005A;
},
{
glyphname = a;
lastChange = "2019-12-20 16:31:36 +0000";
layers = (
{
layerId = "B1BCE86B-A7FB-414A-B0E3-B1B1CA0865E7";
paths = (
{
closed = 1;
nodes = (
"30 463 OFFCURVE",
"50 482 OFFCURVE",
"75 482 CURVE SMOOTH",
"100 482 OFFCURVE",
"120 463 OFFCURVE",
"120 438 CURVE SMOOTH",
"120 414 OFFCURVE",
"100 394 OFFCURVE",
"75 394 CURVE SMOOTH",
"50 394 OFFCURVE",
"30 414 OFFCURVE",
"30 438 CURVE SMOOTH"
);
},
{
closed = 1;
nodes = (
"33 69 OFFCURVE",
"53 89 OFFCURVE",
"77 89 CURVE SMOOTH",
"102 89 OFFCURVE",
"122 69 OFFCURVE",
"122 45 CURVE SMOOTH",
"122 20 OFFCURVE",
"102 1 OFFCURVE",
"77 1 CURVE SMOOTH",
"53 1 OFFCURVE",
"33 20 OFFCURVE",
"33 45 CURVE SMOOTH"
);
},
{
closed = 1;
nodes = (
"59 431 OFFCURVE",
"65 423 OFFCURVE",
"74 423 CURVE SMOOTH",
"83 423 OFFCURVE",
"89 431 OFFCURVE",
"89 440 CURVE SMOOTH",
"89 448 OFFCURVE",
"83 455 OFFCURVE",
"74 455 CURVE SMOOTH",
"65 455 OFFCURVE",
"59 448 OFFCURVE",
"59 440 CURVE SMOOTH"
);
},
{
closed = 1;
nodes = (
"62 39 OFFCURVE",
"69 32 OFFCURVE",
"78 32 CURVE SMOOTH",
"86 32 OFFCURVE",
"94 39 OFFCURVE",
"94 47 CURVE SMOOTH",
"94 56 OFFCURVE",
"86 63 OFFCURVE",
"78 63 CURVE SMOOTH",
"69 63 OFFCURVE",
"62 56 OFFCURVE",
"62 47 CURVE SMOOTH"
);
},
{
closed = 1;
nodes = (
"211 307 LINE",
"247 287 LINE",
"111 64 LINE",
"77 84 LINE"
);
},
{
closed = 1;
nodes = (
"117 426 LINE",
"458 82 LINE",
"430 53 LINE",
"87 397 LINE"
);
},
{
closed = 1;
nodes = (
"439 425 LINE",
"473 404 LINE",
"339 181 LINE",
"303 202 LINE"
);
},
{
closed = 1;
nodes = (
"416 464 OFFCURVE",
"436 483 OFFCURVE",
"461 483 CURVE SMOOTH",
"485 483 OFFCURVE",
"506 464 OFFCURVE",
"506 439 CURVE SMOOTH",
"506 415 OFFCURVE",
"485 395 OFFCURVE",
"461 395 CURVE SMOOTH",
"436 395 OFFCURVE",
"416 415 OFFCURVE",
"416 439 CURVE SMOOTH"
);
},
{
closed = 1;
nodes = (
"425 70 OFFCURVE",
"445 90 OFFCURVE",
"470 90 CURVE SMOOTH",
"494 90 OFFCURVE",
"515 70 OFFCURVE",
"515 47 CURVE SMOOTH",
"515 22 OFFCURVE",
"494 2 OFFCURVE",
"470 2 CURVE SMOOTH",
"445 2 OFFCURVE",
"425 22 OFFCURVE",
"425 47 CURVE SMOOTH"
);
},
{
closed = 1;
nodes = (
"444 431 OFFCURVE",
"451 425 OFFCURVE",
"460 425 CURVE SMOOTH",
"468 425 OFFCURVE",
"476 431 OFFCURVE",
"476 440 CURVE SMOOTH",
"476 449 OFFCURVE",
"468 456 OFFCURVE",
"460 456 CURVE SMOOTH",
"451 456 OFFCURVE",
"444 449 OFFCURVE",
"444 440 CURVE SMOOTH"
);
},
{
closed = 1;
nodes = (
"453 38 OFFCURVE",
"461 31 OFFCURVE",
"469 31 CURVE SMOOTH",
"477 31 OFFCURVE",
"485 38 OFFCURVE",
"485 47 CURVE SMOOTH",
"485 56 OFFCURVE",
"477 62 OFFCURVE",
"469 62 CURVE SMOOTH",
"461 62 OFFCURVE",
"453 56 OFFCURVE",
"453 47 CURVE SMOOTH"
);
}
);
width = 545;
}
);
unicode = 0061;
},
{
glyphname = b;
lastChange = "2019-12-20 16:32:22 +0000";
layers = (
{
layerId = "B1BCE86B-A7FB-414A-B0E3-B1B1CA0865E7";
paths = (
{
closed = 1;
nodes = (
"30 473 OFFCURVE",
"50 494 OFFCURVE",
"75 494 CURVE SMOOTH",
"100 494 OFFCURVE",
"120 473 OFFCURVE",
"120 450 CURVE SMOOTH",
"120 425 OFFCURVE",
"100 405 OFFCURVE",
"75 405 CURVE SMOOTH",
"50 405 OFFCURVE",
"30 425 OFFCURVE",
"30 450 CURVE SMOOTH"
);
},
{
closed = 1;
nodes = (
"32 71 OFFCURVE",
"52 91 OFFCURVE",
"77 91 CURVE SMOOTH",
"102 91 OFFCURVE",
"121 71 OFFCURVE",
"121 47 CURVE SMOOTH",
"121 23 OFFCURVE",
"102 3 OFFCURVE",
"77 3 CURVE SMOOTH",
"52 3 OFFCURVE",
"32 23 OFFCURVE",
"32 47 CURVE SMOOTH"
);
},
{
closed = 1;
nodes = (
"59 442 OFFCURVE",
"65 435 OFFCURVE",
"74 435 CURVE SMOOTH",
"83 435 OFFCURVE",
"89 442 OFFCURVE",
"89 451 CURVE SMOOTH",
"89 459 OFFCURVE",
"83 467 OFFCURVE",
"74 467 CURVE SMOOTH",
"65 467 OFFCURVE",
"59 459 OFFCURVE",
"59 451 CURVE SMOOTH"
);
},
{
closed = 1;
nodes = (
"62 41 OFFCURVE",
"68 33 OFFCURVE",
"77 33 CURVE SMOOTH",
"86 33 OFFCURVE",
"93 41 OFFCURVE",
"93 49 CURVE SMOOTH",
"93 58 OFFCURVE",
"86 65 OFFCURVE",
"77 65 CURVE SMOOTH",
"68 65 OFFCURVE",
"62 58 OFFCURVE",
"62 49 CURVE SMOOTH"
);
},
{
closed = 1;
nodes = (
"104 473 LINE",
"104 473 OFFCURVE",
"313 484 OFFCURVE",
"413 379 CURVE SMOOTH",
"504 283 OFFCURVE",
"499 71 OFFCURVE",
"499 71 CURVE",
"458 71 LINE",
"458 71 OFFCURVE",
"473 249 OFFCURVE",
"380 353 CURVE SMOOTH",
"304 438 OFFCURVE",
"106 432 OFFCURVE",
"106 432 CURVE",
"104 473 LINE"
);
},
{
closed = 1;
nodes = (
"111 69 LINE",
"447 69 LINE",
"447 23 LINE",
"111 23 LINE"
);
},
{
closed = 1;
nodes = (
"433 70 OFFCURVE",
"452 89 OFFCURVE",
"477 89 CURVE SMOOTH",
"502 89 OFFCURVE",
"522 70 OFFCURVE",
"522 46 CURVE SMOOTH",
"522 21 OFFCURVE",
"502 1 OFFCURVE",
"477 1 CURVE SMOOTH",
"452 1 OFFCURVE",
"433 21 OFFCURVE",
"433 46 CURVE SMOOTH"
);
},
{
closed = 1;
nodes = (
"462 38 OFFCURVE",
"468 30 OFFCURVE",
"476 30 CURVE SMOOTH",
"485 30 OFFCURVE",
"492 38 OFFCURVE",
"492 46 CURVE SMOOTH",
"492 55 OFFCURVE",
"485 62 OFFCURVE",
"476 62 CURVE SMOOTH",
"468 62 OFFCURVE",
"462 55 OFFCURVE",
"462 46 CURVE SMOOTH"
);
}
);
width = 552;
}
);
unicode = 0062;
},
{
glyphname = c;
lastChange = "2019-12-20 16:33:12 +0000";
layers = (
{
layerId = "B1BCE86B-A7FB-414A-B0E3-B1B1CA0865E7";
paths = (
{
closed = 1;
nodes = (
"30 446 OFFCURVE",
"50 466 OFFCURVE",
"75 466 CURVE SMOOTH",
"100 466 OFFCURVE",
"120 446 OFFCURVE",
"120 422 CURVE SMOOTH",
"120 397 OFFCURVE",
"100 377 OFFCURVE",
"75 377 CURVE SMOOTH",
"50 377 OFFCURVE",
"30 397 OFFCURVE",
"30 422 CURVE SMOOTH"
);
},
{
closed = 1;
nodes = (
"48 390 LINE",
"103 390 LINE",
"103 1 LINE",
"48 1 LINE"
);
},
{
closed = 1;
nodes = (
"58 413 OFFCURVE",
"65 407 OFFCURVE",
"74 407 CURVE SMOOTH",
"82 407 OFFCURVE",
"89 413 OFFCURVE",
"89 422 CURVE SMOOTH",
"89 431 OFFCURVE",
"82 438 OFFCURVE",
"74 438 CURVE SMOOTH",
"65 438 OFFCURVE",
"58 431 OFFCURVE",
"58 422 CURVE SMOOTH"
);
},
{
closed = 1;
nodes = (
"108 451 LINE",
"444 451 LINE",
"444 394 LINE",
"108 394 LINE"
);
},
{
closed = 1;
nodes = (
"431 444 OFFCURVE",
"452 464 OFFCURVE",
"476 464 CURVE SMOOTH",
"501 464 OFFCURVE",
"522 444 OFFCURVE",
"522 420 CURVE SMOOTH",
"522 395 OFFCURVE",
"501 376 OFFCURVE",
"476 376 CURVE SMOOTH",
"452 376 OFFCURVE",
"431 395 OFFCURVE",
"431 420 CURVE SMOOTH"
);
},
{
closed = 1;
nodes = (
"449 389 LINE",
"501 389 LINE",
"501 1 LINE",
"449 1 LINE"
);
},
{
closed = 1;
nodes = (
"460 412 OFFCURVE",
"467 405 OFFCURVE",
"475 405 CURVE SMOOTH",
"484 405 OFFCURVE",
"491 412 OFFCURVE",
"491 421 CURVE SMOOTH",
"491 430 OFFCURVE",
"484 437 OFFCURVE",
"475 437 CURVE SMOOTH",
"467 437 OFFCURVE",
"460 430 OFFCURVE",
"460 421 CURVE SMOOTH"
);
}
);
width = 552;
}
);
unicode = 0063;
},
{
glyphname = d;
lastChange = "2019-12-20 16:35:42 +0000";
layers = (
{
layerId = "B1BCE86B-A7FB-414A-B0E3-B1B1CA0865E7";
paths = (
{
closed = 1;
nodes = (
"30 445 OFFCURVE",
"50 465 OFFCURVE",
"75 465 CURVE SMOOTH",
"100 465 OFFCURVE",
"120 445 OFFCURVE",
"120 421 CURVE SMOOTH",
"120 396 OFFCURVE",
"100 376 OFFCURVE",
"75 376 CURVE SMOOTH",
"50 376 OFFCURVE",
"30 396 OFFCURVE",
"30 421 CURVE SMOOTH"
);
},
{
closed = 1;
nodes = (
"58 413 OFFCURVE",
"65 406 OFFCURVE",
"74 406 CURVE SMOOTH",
"82 406 OFFCURVE",
"89 413 OFFCURVE",
"89 422 CURVE SMOOTH",
"89 431 OFFCURVE",
"82 437 OFFCURVE",
"74 437 CURVE SMOOTH",
"65 437 OFFCURVE",
"58 431 OFFCURVE",
"58 422 CURVE SMOOTH"
);
},
{
closed = 1;
nodes = (
"108 450 LINE",
"444 450 LINE",
"444 393 LINE",
"108 393 LINE"
);
},
{
closed = 1;
nodes = (
"416 446 OFFCURVE",
"437 466 OFFCURVE",
"461 466 CURVE SMOOTH",
"486 466 OFFCURVE",
"507 446 OFFCURVE",
"507 422 CURVE SMOOTH",
"507 397 OFFCURVE",
"486 377 OFFCURVE",
"461 377 CURVE SMOOTH",
"437 377 OFFCURVE",
"416 397 OFFCURVE",
"416 422 CURVE SMOOTH"
);
},
{
closed = 1;
nodes = (
"437 389 LINE",
"488 389 LINE",
"488 1 LINE",
"437 1 LINE"
);
},
{
closed = 1;
nodes = (
"445 413 OFFCURVE",
"452 407 OFFCURVE",
"460 407 CURVE SMOOTH",
"469 407 OFFCURVE",
"476 413 OFFCURVE",
"476 422 CURVE SMOOTH",
"476 431 OFFCURVE",
"469 438 OFFCURVE",
"460 438 CURVE SMOOTH",
"452 438 OFFCURVE",
"445 431 OFFCURVE",
"445 422 CURVE SMOOTH"
);
}
);
width = 537;
}
);
unicode = 0064;
},
{
glyphname = e;
lastChange = "2019-12-20 16:36:32 +0000";
layers = (
{
layerId = "B1BCE86B-A7FB-414A-B0E3-B1B1CA0865E7";
paths = (
{
closed = 1;
nodes = (
"30 443 OFFCURVE",
"50 464 OFFCURVE",
"75 464 CURVE SMOOTH",
"100 464 OFFCURVE",
"120 443 OFFCURVE",
"120 419 CURVE SMOOTH",
"120 394 OFFCURVE",
"100 375 OFFCURVE",
"75 375 CURVE SMOOTH",
"50 375 OFFCURVE",
"30 394 OFFCURVE",
"30 419 CURVE SMOOTH"
);
},
{
closed = 1;
nodes = (
"58 411 OFFCURVE",
"65 404 OFFCURVE",
"74 404 CURVE SMOOTH",
"82 404 OFFCURVE",
"89 411 OFFCURVE",
"89 420 CURVE SMOOTH",
"89 429 OFFCURVE",
"82 436 OFFCURVE",
"74 436 CURVE SMOOTH",
"65 436 OFFCURVE",
"58 429 OFFCURVE",
"58 420 CURVE SMOOTH"
);
},
{
closed = 1;
nodes = (
"108 449 LINE",
"444 449 LINE",
"444 391 LINE",
"108 391 LINE"
);
},
{
closed = 1;
nodes = (
"153 393 LINE",
"205 393 LINE",
"205 1 LINE",
"153 1 LINE"
);
},
{
closed = 1;
nodes = (
"416 444 OFFCURVE",
"437 464 OFFCURVE",
"461 464 CURVE SMOOTH",
"486 464 OFFCURVE",
"506 444 OFFCURVE",
"506 420 CURVE SMOOTH",
"506 395 OFFCURVE",
"486 376 OFFCURVE",
"461 376 CURVE SMOOTH",
"437 376 OFFCURVE",
"416 395 OFFCURVE",
"416 420 CURVE SMOOTH"
);
},
{
closed = 1;
nodes = (
"434 388 LINE",
"486 388 LINE",
"486 1 LINE",
"434 1 LINE"
);
},
{
closed = 1;
nodes = (
"445 412 OFFCURVE",
"452 405 OFFCURVE",
"460 405 CURVE SMOOTH",
"469 405 OFFCURVE",
"476 412 OFFCURVE",
"476 421 CURVE SMOOTH",
"476 430 OFFCURVE",
"469 437 OFFCURVE",
"460 437 CURVE SMOOTH",
"452 437 OFFCURVE",
"445 430 OFFCURVE",
"445 421 CURVE SMOOTH"
);
}
);
width = 536;
}
);
unicode = 0065;
},
{
glyphname = f;
lastChange = "2019-12-20 16:37:58 +0000";
layers = (
{
layerId = "B1BCE86B-A7FB-414A-B0E3-B1B1CA0865E7";
paths = (
{
closed = 1;
nodes = (
"30 470 OFFCURVE",
"50 490 OFFCURVE",
"75 490 CURVE SMOOTH",
"100 490 OFFCURVE",
"120 470 OFFCURVE",
"120 446 CURVE SMOOTH",
"120 422 OFFCURVE",
"100 402 OFFCURVE",
"75 402 CURVE SMOOTH",
"50 402 OFFCURVE",
"30 422 OFFCURVE",
"30 446 CURVE SMOOTH"
);
},
{
closed = 1;
nodes = (
"45 42 LINE",
"506 42 LINE",
"476 14 LINE",
"87 405 LINE",
"117 434 LINE",
"506 42 LINE",
"506 1 LINE",
"45 1 LINE"
);
},
{
closed = 1;
nodes = (
"59 438 OFFCURVE",
"65 431 OFFCURVE",
"73 431 CURVE SMOOTH",
"83 431 OFFCURVE",
"89 438 OFFCURVE",
"89 447 CURVE SMOOTH",
"89 455 OFFCURVE",
"83 463 OFFCURVE",
"73 463 CURVE SMOOTH",
"65 463 OFFCURVE",
"59 455 OFFCURVE",
"59 447 CURVE SMOOTH"
);
},
{
closed = 1;
nodes = (
"344 440 LINE",
"374 412 LINE",
"243 272 LINE",
"213 300 LINE"
);
},
{
closed = 1;
nodes = (
"339 470 OFFCURVE",
"358 489 OFFCURVE",
"383 489 CURVE SMOOTH",
"408 489 OFFCURVE",
"428 470 OFFCURVE",
"428 445 CURVE SMOOTH",
"428 420 OFFCURVE",
"408 400 OFFCURVE",
"383 400 CURVE SMOOTH",
"358 400 OFFCURVE",
"339 420 OFFCURVE",
"339 445 CURVE SMOOTH"
);
},
{
closed = 1;
nodes = (
"367 437 OFFCURVE",
"373 430 OFFCURVE",
"383 430 CURVE SMOOTH",
"391 430 OFFCURVE",
"398 437 OFFCURVE",
"398 446 CURVE SMOOTH",
"398 455 OFFCURVE",
"391 461 OFFCURVE",
"383 461 CURVE SMOOTH",
"373 461 OFFCURVE",
"367 455 OFFCURVE",
"367 446 CURVE SMOOTH"
);
}
);
width = 536;
}
);
unicode = 0066;
},
{
glyphname = g;
lastChange = "2019-12-20 16:39:26 +0000";
layers = (
{
layerId = "B1BCE86B-A7FB-414A-B0E3-B1B1CA0865E7";
paths = (
{
closed = 1;
nodes = (
"30 71 OFFCURVE",
"50 90 OFFCURVE",
"75 90 CURVE SMOOTH",
"100 90 OFFCURVE",
"120 71 OFFCURVE",
"120 46 CURVE SMOOTH",
"120 22 OFFCURVE",
"100 2 OFFCURVE",
"75 2 CURVE SMOOTH",
"50 2 OFFCURVE",
"30 22 OFFCURVE",
"30 46 CURVE SMOOTH"
);
},
{
closed = 1;
nodes = (
"59 38 OFFCURVE",
"65 31 OFFCURVE",
"75 31 CURVE SMOOTH",
"83 31 OFFCURVE",
"89 38 OFFCURVE",
"89 47 CURVE SMOOTH",
"89 55 OFFCURVE",
"83 62 OFFCURVE",
"75 62 CURVE SMOOTH",
"65 62 OFFCURVE",
"59 55 OFFCURVE",
"59 47 CURVE SMOOTH"
);
},
{
closed = 1;
nodes = (
"319 334 LINE",
"357 297 LINE",
"114 51 LINE",
"77 88 LINE"
);
},
{
closed = 1;
nodes = (
"294 71 OFFCURVE",
"313 90 OFFCURVE",
"338 90 CURVE SMOOTH",
"363 90 OFFCURVE",
"384 71 OFFCURVE",
"384 46 CURVE SMOOTH",
"384 21 OFFCURVE",
"363 1 OFFCURVE",
"338 1 CURVE SMOOTH",
"313 1 OFFCURVE",
"294 21 OFFCURVE",
"294 46 CURVE SMOOTH"
);
},
{
closed = 1;
nodes = (
"294 469 OFFCURVE",
"313 488 OFFCURVE",
"338 488 CURVE SMOOTH",
"363 488 OFFCURVE",
"384 469 OFFCURVE",
"384 444 CURVE SMOOTH",
"384 420 OFFCURVE",
"363 400 OFFCURVE",
"338 400 CURVE SMOOTH",
"313 400 OFFCURVE",
"294 420 OFFCURVE",
"294 444 CURVE SMOOTH"
);
},
{
closed = 1;
nodes = (
"312 413 LINE",
"364 413 LINE",
"364 67 LINE",
"312 67 LINE"
);
},
{
closed = 1;
nodes = (
"322 437 OFFCURVE",
"328 430 OFFCURVE",
"337 430 CURVE SMOOTH",
"346 430 OFFCURVE",
"353 437 OFFCURVE",
"353 446 CURVE SMOOTH",
"353 454 OFFCURVE",
"346 461 OFFCURVE",
"337 461 CURVE SMOOTH",
"328 461 OFFCURVE",
"322 454 OFFCURVE",
"322 446 CURVE SMOOTH"
);
},
{
closed = 1;
nodes = (
"322 38 OFFCURVE",
"329 31 OFFCURVE",
"338 31 CURVE SMOOTH",
"346 31 OFFCURVE",
"353 38 OFFCURVE",
"353 47 CURVE SMOOTH",
"353 55 OFFCURVE",
"346 62 OFFCURVE",
"338 62 CURVE SMOOTH",
"329 62 OFFCURVE",
"322 55 OFFCURVE",
"322 47 CURVE SMOOTH"
);
}
);
width = 414;
}
);
unicode = 0067;
},
{
glyphname = h;
lastChange = "2019-12-20 16:36:51 +0000";
layers = (
{
layerId = "B1BCE86B-A7FB-414A-B0E3-B1B1CA0865E7";
paths = (
{
closed = 1;
nodes = (
"30 443 OFFCURVE",
"50 464 OFFCURVE",
"75 464 CURVE SMOOTH",
"100 464 OFFCURVE",
"120 443 OFFCURVE",
"120 419 CURVE SMOOTH",
"120 394 OFFCURVE",
"100 375 OFFCURVE",
"75 375 CURVE SMOOTH",
"50 375 OFFCURVE",
"30 394 OFFCURVE",
"30 419 CURVE SMOOTH"
);
},
{
closed = 1;
nodes = (
"58 411 OFFCURVE",
"65 404 OFFCURVE",
"74 404 CURVE SMOOTH",
"82 404 OFFCURVE",
"89 411 OFFCURVE",
"89 420 CURVE SMOOTH",
"89 429 OFFCURVE",
"82 436 OFFCURVE",
"74 436 CURVE SMOOTH",
"65 436 OFFCURVE",
"58 429 OFFCURVE",
"58 420 CURVE SMOOTH"
);
},
{
closed = 1;
nodes = (
"108 449 LINE",
"444 449 LINE",
"444 391 LINE",
"108 391 LINE"
);
},
{
closed = 1;
nodes = (
"153 393 LINE",
"205 393 LINE",
"205 1 LINE",
"153 1 LINE"
);
},
{
closed = 1;
nodes = (
"416 444 OFFCURVE",
"437 464 OFFCURVE",
"461 464 CURVE SMOOTH",
"486 464 OFFCURVE",
"506 444 OFFCURVE",
"506 420 CURVE SMOOTH",
"506 395 OFFCURVE",
"486 376 OFFCURVE",
"461 376 CURVE SMOOTH",
"437 376 OFFCURVE",
"416 395 OFFCURVE",
"416 420 CURVE SMOOTH"
);
},
{
closed = 1;
nodes = (
"434 388 LINE",
"486 388 LINE",
"486 1 LINE",
"434 1 LINE"
);
},
{
closed = 1;
nodes = (
"445 412 OFFCURVE",
"452 405 OFFCURVE",
"460 405 CURVE SMOOTH",
"469 405 OFFCURVE",
"476 412 OFFCURVE",
"476 421 CURVE SMOOTH",
"476 430 OFFCURVE",
"469 437 OFFCURVE",
"460 437 CURVE SMOOTH",
"452 437 OFFCURVE",
"445 430 OFFCURVE",
"445 421 CURVE SMOOTH"
);
}
);
width = 536;
}
);
unicode = 0068;
},
{
glyphname = i;
lastChange = "2019-12-20 16:40:28 +0000";
layers = (
{
layerId = "B1BCE86B-A7FB-414A-B0E3-B1B1CA0865E7";
paths = (
{
closed = 1;
nodes = (
"30 70 OFFCURVE",
"50 89 OFFCURVE",
"75 89 CURVE SMOOTH",
"100 89 OFFCURVE",
"120 70 OFFCURVE",
"120 45 CURVE SMOOTH",
"120 21 OFFCURVE",
"100 1 OFFCURVE",
"75 1 CURVE SMOOTH",
"50 1 OFFCURVE",
"30 21 OFFCURVE",
"30 45 CURVE SMOOTH"
);
},
{
closed = 1;
nodes = (
"60 38 OFFCURVE",
"67 32 OFFCURVE",
"76 32 CURVE SMOOTH",
"84 32 OFFCURVE",
"91 38 OFFCURVE",
"91 47 CURVE SMOOTH",
"91 56 OFFCURVE",
"84 63 OFFCURVE",
"76 63 CURVE SMOOTH",
"67 63 OFFCURVE",
"60 56 OFFCURVE",
"60 47 CURVE SMOOTH"
);
},
{
closed = 1;
nodes = (
"244 441 LINE",
"281 423 LINE",
"108 62 LINE",
"71 80 LINE"
);
},
{
closed = 1;
nodes = (
"112 69 LINE",
"449 69 LINE",
"449 23 LINE",
"112 23 LINE"
);
},
{
closed = 1;
nodes = (
"233 473 OFFCURVE",
"253 492 OFFCURVE",
"278 492 CURVE SMOOTH",
"303 492 OFFCURVE",
"322 473 OFFCURVE",
"322 448 CURVE SMOOTH",
"322 424 OFFCURVE",
"303 403 OFFCURVE",
"278 403 CURVE SMOOTH",
"253 403 OFFCURVE",
"233 424 OFFCURVE",
"233 448 CURVE SMOOTH"
);
},
{
closed = 1;
nodes = (
"261 440 OFFCURVE",
"268 434 OFFCURVE",
"277 434 CURVE SMOOTH",
"285 434 OFFCURVE",
"292 440 OFFCURVE",
"292 449 CURVE SMOOTH",
"292 458 OFFCURVE",
"285 465 OFFCURVE",
"277 465 CURVE SMOOTH",
"268 465 OFFCURVE",
"261 458 OFFCURVE",
"261 449 CURVE SMOOTH"
);
},
{
closed = 1;
nodes = (
"310 440 LINE",
"485 80 LINE",
"448 62 LINE",
"273 423 LINE"
);
},
{
closed = 1;
nodes = (
"434 70 OFFCURVE",
"454 91 OFFCURVE",
"479 91 CURVE",
"479 89 LINE",
"503 89 OFFCURVE",
"524 70 OFFCURVE",
"524 45 CURVE SMOOTH",
"524 21 OFFCURVE",
"503 1 OFFCURVE",
"479 1 CURVE SMOOTH",
"454 1 OFFCURVE",
"434 21 OFFCURVE",
"434 45 CURVE SMOOTH"
);
},
{
closed = 1;
nodes = (
"463 37 OFFCURVE",
"470 27 OFFCURVE",
"479 27 CURVE SMOOTH",
"487 27 OFFCURVE",
"494 37 OFFCURVE",
"494 45 CURVE SMOOTH",
"494 54 OFFCURVE",
"487 61 OFFCURVE",
"479 63 CURVE",
"470 63 OFFCURVE",
"463 54 OFFCURVE",
"463 45 CURVE SMOOTH"
);
}
);
width = 554;
}
);
unicode = 0069;
},
{
glyphname = j;
lastChange = "2019-12-20 16:40:47 +0000";
layers = (
{
layerId = "B1BCE86B-A7FB-414A-B0E3-B1B1CA0865E7";
paths = (
{
closed = 1;
nodes = (
"30 70 OFFCURVE",
"50 89 OFFCURVE",
"75 89 CURVE SMOOTH",
"100 89 OFFCURVE",
"120 70 OFFCURVE",
"120 45 CURVE SMOOTH",
"120 21 OFFCURVE",
"100 1 OFFCURVE",
"75 1 CURVE SMOOTH",
"50 1 OFFCURVE",
"30 21 OFFCURVE",
"30 45 CURVE SMOOTH"
);
},
{
closed = 1;
nodes = (
"60 38 OFFCURVE",
"67 32 OFFCURVE",
"76 32 CURVE SMOOTH",
"84 32 OFFCURVE",
"91 38 OFFCURVE",
"91 47 CURVE SMOOTH",
"91 56 OFFCURVE",
"84 63 OFFCURVE",
"76 63 CURVE SMOOTH",
"67 63 OFFCURVE",
"60 56 OFFCURVE",
"60 47 CURVE SMOOTH"
);
},
{
closed = 1;
nodes = (
"244 441 LINE",
"281 423 LINE",
"108 62 LINE",
"71 80 LINE"
);
},
{
closed = 1;
nodes = (
"112 69 LINE",
"449 69 LINE",
"449 23 LINE",
"112 23 LINE"
);
},
{
closed = 1;
nodes = (
"233 473 OFFCURVE",
"253 492 OFFCURVE",
"278 492 CURVE SMOOTH",
"303 492 OFFCURVE",
"322 473 OFFCURVE",
"322 448 CURVE SMOOTH",
"322 424 OFFCURVE",
"303 403 OFFCURVE",
"278 403 CURVE SMOOTH",
"253 403 OFFCURVE",
"233 424 OFFCURVE",
"233 448 CURVE SMOOTH"
);
},
{
closed = 1;
nodes = (
"261 440 OFFCURVE",
"268 434 OFFCURVE",
"277 434 CURVE SMOOTH",
"285 434 OFFCURVE",
"292 440 OFFCURVE",
"292 449 CURVE SMOOTH",
"292 458 OFFCURVE",
"285 465 OFFCURVE",
"277 465 CURVE SMOOTH",
"268 465 OFFCURVE",
"261 458 OFFCURVE",
"261 449 CURVE SMOOTH"
);
},
{
closed = 1;
nodes = (
"310 440 LINE",
"485 80 LINE",
"448 62 LINE",
"273 423 LINE"
);
},
{
closed = 1;
nodes = (
"434 70 OFFCURVE",
"454 91 OFFCURVE",
"479 91 CURVE",
"479 89 LINE",
"503 89 OFFCURVE",
"524 70 OFFCURVE",
"524 45 CURVE SMOOTH",
"524 21 OFFCURVE",
"503 1 OFFCURVE",
"479 1 CURVE SMOOTH",
"454 1 OFFCURVE",
"434 21 OFFCURVE",
"434 45 CURVE SMOOTH"
);
},
{
closed = 1;
nodes = (
"463 37 OFFCURVE",
"470 27 OFFCURVE",
"479 27 CURVE SMOOTH",
"487 27 OFFCURVE",
"494 37 OFFCURVE",
"494 45 CURVE SMOOTH",
"494 54 OFFCURVE",
"487 61 OFFCURVE",
"479 63 CURVE",
"470 63 OFFCURVE",
"463 54 OFFCURVE",
"463 45 CURVE SMOOTH"
);
}
);
width = 554;
}
);
unicode = 006A;
},
{
glyphname = k;
lastChange = "2019-12-20 16:42:16 +0000";
layers = (
{
layerId = "B1BCE86B-A7FB-414A-B0E3-B1B1CA0865E7";
paths = (
{
closed = 1;
nodes = (
"30 114 OFFCURVE",
"50 134 OFFCURVE",
"75 134 CURVE SMOOTH",
"100 134 OFFCURVE",
"120 114 OFFCURVE",
"120 89 CURVE SMOOTH",
"120 65 OFFCURVE",
"100 45 OFFCURVE",
"75 45 CURVE SMOOTH",
"50 45 OFFCURVE",
"30 65 OFFCURVE",
"30 89 CURVE SMOOTH"
);
},
{
closed = 1;
nodes = (
"30 421 OFFCURVE",
"50 441 OFFCURVE",
"74 441 CURVE SMOOTH",
"99 441 OFFCURVE",
"120 421 OFFCURVE",
"120 397 CURVE SMOOTH",
"120 372 OFFCURVE",
"99 352 OFFCURVE",
"74 352 CURVE SMOOTH",
"50 352 OFFCURVE",
"30 372 OFFCURVE",
"30 397 CURVE SMOOTH"
);
},
{
closed = 1;
nodes = (
"58 389 OFFCURVE",
"65 382 OFFCURVE",
"74 382 CURVE SMOOTH",
"82 382 OFFCURVE",
"89 389 OFFCURVE",
"89 397 CURVE SMOOTH",
"89 407 OFFCURVE",
"82 413 OFFCURVE",
"74 413 CURVE SMOOTH",
"65 413 OFFCURVE",
"58 407 OFFCURVE",
"58 397 CURVE SMOOTH"
);
},
{
closed = 1;
nodes = (
"60 83 OFFCURVE",
"67 76 OFFCURVE",
"76 76 CURVE SMOOTH",
"84 76 OFFCURVE",
"91 83 OFFCURVE",
"91 92 CURVE SMOOTH",
"91 100 OFFCURVE",
"84 107 OFFCURVE",
"76 107 CURVE SMOOTH",
"67 107 OFFCURVE",
"60 100 OFFCURVE",
"60 92 CURVE SMOOTH"
);
},
{
closed = 1;
nodes = (
"89 428 LINE",
"89 428 OFFCURVE",
"140 494 OFFCURVE",
"253 494 CURVE SMOOTH",
"365 494 OFFCURVE",
"467 391 OFFCURVE",
"467 248 CURVE SMOOTH",
"467 105 OFFCURVE",
"365 1 OFFCURVE",
"253 1 CURVE SMOOTH",
"140 1 OFFCURVE",
"90 64 OFFCURVE",
"90 64 CURVE",
"109 98 LINE",
"109 98 OFFCURVE",
"186 41 OFFCURVE",
"253 41 CURVE SMOOTH",
"319 41 OFFCURVE",
"424 98 OFFCURVE",
"424 248 CURVE SMOOTH",
"424 398 OFFCURVE",
"319 451 OFFCURVE",
"253 451 CURVE SMOOTH",
"186 451 OFFCURVE",
"108 392 OFFCURVE",
"108 392 CURVE",
"89 428 LINE"
);
}
);
width = 497;
}
);
unicode = 006B;
},
{
glyphname = l;
lastChange = "2019-12-20 16:43:09 +0000";
layers = (
{
layerId = "B1BCE86B-A7FB-414A-B0E3-B1B1CA0865E7";
paths = (
{
closed = 1;
nodes = (
"30 276 OFFCURVE",
"50 295 OFFCURVE",
"74 295 CURVE SMOOTH",
"99 295 OFFCURVE",
"120 276 OFFCURVE",
"120 251 CURVE SMOOTH",
"120 227 OFFCURVE",
"99 207 OFFCURVE",
"74 207 CURVE SMOOTH",
"50 207 OFFCURVE",
"30 227 OFFCURVE",
"30 251 CURVE SMOOTH"
);
},
{
closed = 1;
nodes = (
"58 243 OFFCURVE",
"65 237 OFFCURVE",
"73 237 CURVE SMOOTH",
"82 237 OFFCURVE",
"89 243 OFFCURVE",
"89 252 CURVE SMOOTH",
"89 261 OFFCURVE",
"82 268 OFFCURVE",
"73 268 CURVE SMOOTH",
"65 268 OFFCURVE",
"58 261 OFFCURVE",
"58 252 CURVE SMOOTH"
);
},
{
closed = 1;
nodes = (
"220 437 LINE",
"250 409 LINE",
"106 255 LINE",
"76 283 LINE"
);
},
{
closed = 1;
nodes = (
"104 274 LINE",
"352 274 LINE",
"352 228 LINE",
"104 228 LINE"
);
},
{
closed = 1;
nodes = (
"349 244 LINE",
"379 216 LINE",
"177 1 LINE",
"147 29 LINE"
);
},
{
closed = 1;
nodes = (
"211 470 OFFCURVE",
"231 489 OFFCURVE",
"256 489 CURVE SMOOTH",
"281 489 OFFCURVE",
"301 470 OFFCURVE",
"301 446 CURVE SMOOTH",
"301 421 OFFCURVE",
"281 401 OFFCURVE",
"256 401 CURVE SMOOTH",
"231 401 OFFCURVE",
"211 421 OFFCURVE",
"211 446 CURVE SMOOTH"
);
},
{
closed = 1;
nodes = (
"239 437 OFFCURVE",
"247 431 OFFCURVE",
"255 431 CURVE SMOOTH",
"263 431 OFFCURVE",
"271 437 OFFCURVE",
"271 446 CURVE SMOOTH",
"271 455 OFFCURVE",
"263 462 OFFCURVE",
"255 462 CURVE SMOOTH",
"247 462 OFFCURVE",
"239 455 OFFCURVE",
"239 446 CURVE SMOOTH"
);
},
{
closed = 1;
nodes = (
"338 277 OFFCURVE",
"358 295 OFFCURVE",
"383 295 CURVE SMOOTH",
"407 295 OFFCURVE",
"428 276 OFFCURVE",
"428 251 CURVE SMOOTH",
"428 227 OFFCURVE",
"407 206 OFFCURVE",
"383 206 CURVE SMOOTH",
"358 206 OFFCURVE",
"338 228 OFFCURVE",
"338 252 CURVE SMOOTH"
);
},
{
closed = 1;
nodes = (
"367 242 OFFCURVE",
"373 235 OFFCURVE",
"383 235 CURVE SMOOTH",
"391 235 OFFCURVE",
"398 242 OFFCURVE",
"398 251 CURVE SMOOTH",
"398 259 OFFCURVE",
"391 267 OFFCURVE",
"383 267 CURVE SMOOTH",
"373 267 OFFCURVE",
"367 259 OFFCURVE",
"367 251 CURVE SMOOTH"
);
}
);
width = 458;
}
);
unicode = 006C;
},
{
glyphname = m;
lastChange = "2019-12-20 16:44:15 +0000";
layers = (
{
layerId = "B1BCE86B-A7FB-414A-B0E3-B1B1CA0865E7";
paths = (
{
closed = 1;
nodes = (
"30 470 OFFCURVE",
"50 491 OFFCURVE",
"75 491 CURVE SMOOTH",
"100 491 OFFCURVE",
"120 470 OFFCURVE",
"120 446 CURVE SMOOTH",
"120 422 OFFCURVE",
"100 402 OFFCURVE",
"75 402 CURVE SMOOTH",
"50 402 OFFCURVE",
"30 422 OFFCURVE",
"30 446 CURVE SMOOTH"
);
},
{
closed = 1;
nodes = (
"300 431 LINE",
"336 409 LINE",
"86 7 LINE",
"50 29 LINE"
);
},
{
closed = 1;
nodes = (
"58 438 OFFCURVE",
"65 431 OFFCURVE",
"74 431 CURVE SMOOTH",
"82 431 OFFCURVE",
"89 438 OFFCURVE",
"89 447 CURVE SMOOTH",
"89 456 OFFCURVE",
"82 463 OFFCURVE",
"74 463 CURVE SMOOTH",
"65 463 OFFCURVE",
"58 456 OFFCURVE",
"58 447 CURVE SMOOTH"
);
},
{
closed = 1;
nodes = (
"117 434 LINE",
"248 301 LINE",
"219 273 LINE",
"88 405 LINE"
);
},
{
closed = 1;
nodes = (
"291 69 OFFCURVE",
"311 89 OFFCURVE",
"336 89 CURVE SMOOTH",
"361 89 OFFCURVE",
"380 69 OFFCURVE",
"380 45 CURVE SMOOTH",
"380 20 OFFCURVE",
"361 1 OFFCURVE",
"336 1 CURVE SMOOTH",
"311 1 OFFCURVE",
"291 20 OFFCURVE",
"291 45 CURVE SMOOTH"
);
},
{
closed = 1;
nodes = (
"291 470 OFFCURVE",
"311 490 OFFCURVE",
"336 490 CURVE SMOOTH",
"361 490 OFFCURVE",
"381 470 OFFCURVE",
"381 446 CURVE SMOOTH",
"381 421 OFFCURVE",
"361 401 OFFCURVE",
"336 401 CURVE SMOOTH",
"311 401 OFFCURVE",
"291 421 OFFCURVE",
"291 446 CURVE SMOOTH"
);
},
{
closed = 1;
nodes = (
"314 425 LINE",
"355 425 LINE",
"355 73 LINE",
"314 73 LINE"
);
},
{
closed = 1;
nodes = (
"319 438 OFFCURVE",
"326 431 OFFCURVE",
"334 431 CURVE SMOOTH",
"343 431 OFFCURVE",
"350 438 OFFCURVE",
"350 446 CURVE SMOOTH",
"350 455 OFFCURVE",
"343 462 OFFCURVE",
"334 462 CURVE SMOOTH",
"326 462 OFFCURVE",
"319 455 OFFCURVE",
"319 446 CURVE SMOOTH"
);
},
{
closed = 1;
nodes = (
"321 38 OFFCURVE",
"328 31 OFFCURVE",
"336 31 CURVE SMOOTH",
"345 31 OFFCURVE",
"352 38 OFFCURVE",
"352 47 CURVE SMOOTH",
"352 56 OFFCURVE",
"345 62 OFFCURVE",
"336 62 CURVE SMOOTH",
"328 62 OFFCURVE",
"321 56 OFFCURVE",
"321 47 CURVE SMOOTH"
);
}
);
width = 411;
}
);
unicode = 006D;
},
{
glyphname = n;
lastChange = "2019-12-20 16:45:36 +0000";
layers = (
{
layerId = "B1BCE86B-A7FB-414A-B0E3-B1B1CA0865E7";
paths = (
{
closed = 1;
nodes = (
"30 462 OFFCURVE",
"50 482 OFFCURVE",
"75 482 CURVE SMOOTH",
"100 482 OFFCURVE",
"120 462 OFFCURVE",
"120 438 CURVE SMOOTH",
"120 413 OFFCURVE",
"100 394 OFFCURVE",
"75 394 CURVE SMOOTH",
"50 394 OFFCURVE",
"30 413 OFFCURVE",
"30 438 CURVE SMOOTH"
);
},
{
closed = 1;
nodes = (
"32 69 OFFCURVE",
"53 89 OFFCURVE",
"77 89 CURVE SMOOTH",
"102 89 OFFCURVE",
"123 69 OFFCURVE",
"123 45 CURVE SMOOTH",
"123 20 OFFCURVE",
"102 1 OFFCURVE",
"77 1 CURVE SMOOTH",
"53 1 OFFCURVE",
"32 20 OFFCURVE",
"32 45 CURVE SMOOTH"
);
},
{
closed = 1;
nodes = (
"58 430 OFFCURVE",
"65 423 OFFCURVE",
"74 423 CURVE SMOOTH",
"82 423 OFFCURVE",
"89 430 OFFCURVE",
"89 439 CURVE SMOOTH",
"89 448 OFFCURVE",
"82 455 OFFCURVE",
"74 455 CURVE SMOOTH",
"65 455 OFFCURVE",
"58 448 OFFCURVE",
"58 439 CURVE SMOOTH"
);
},
{
closed = 1;
nodes = (
"62 38 OFFCURVE",
"69 31 OFFCURVE",
"78 31 CURVE SMOOTH",
"86 31 OFFCURVE",
"93 38 OFFCURVE",
"93 47 CURVE SMOOTH",
"93 56 OFFCURVE",
"86 62 OFFCURVE",
"78 62 CURVE SMOOTH",
"69 62 OFFCURVE",
"62 56 OFFCURVE",
"62 47 CURVE SMOOTH"
);
},
{
closed = 1;
nodes = (
"117 426 LINE",
"299 242 LINE",
"271 213 LINE",
"88 397 LINE"
);
},
{
closed = 1;
nodes = (
"271 272 LINE",
"300 243 LINE",
"120 56 LINE",
"89 83 LINE"
);
}
);
width = 330;
}
);
unicode = 006E;
},
{
glyphname = o;
lastChange = "2019-12-20 16:47:08 +0000";
layers = (
{
layerId = "B1BCE86B-A7FB-414A-B0E3-B1B1CA0865E7";
paths = (
{
closed = 1;
nodes = (
"30 468 OFFCURVE",
"50 488 OFFCURVE",
"75 488 CURVE SMOOTH",
"100 488 OFFCURVE",
"120 468 OFFCURVE",
"120 444 CURVE SMOOTH",
"120 419 OFFCURVE",
"100 400 OFFCURVE",
"75 400 CURVE SMOOTH",
"50 400 OFFCURVE",
"30 419 OFFCURVE",
"30 444 CURVE SMOOTH"
);
},
{
closed = 1;
nodes = (
"58 436 OFFCURVE",
"65 429 OFFCURVE",
"74 429 CURVE SMOOTH",
"82 429 OFFCURVE",
"89 436 OFFCURVE",
"89 445 CURVE SMOOTH",
"89 454 OFFCURVE",
"82 461 OFFCURVE",
"74 461 CURVE SMOOTH",
"65 461 OFFCURVE",
"58 454 OFFCURVE",
"58 445 CURVE SMOOTH"
);
},
{
closed = 1;
nodes = (
"270 310 LINE",
"304 286 LINE",
"99 1 LINE",
"65 25 LINE"
);
},
{
closed = 1;
nodes = (
"108 446 LINE",
"309 303 LINE",
"285 270 LINE",
"84 413 LINE"
);
},
{
closed = 1;
nodes = (
"312 432 LINE",
"350 418 LINE",
"303 286 LINE",
"265 301 LINE"
);
},
{
closed = 1;
nodes = (
"290 473 OFFCURVE",
"310 492 OFFCURVE",
"335 492 CURVE SMOOTH",
"360 492 OFFCURVE",
"380 473 OFFCURVE",
"380 448 CURVE SMOOTH",
"380 424 OFFCURVE",
"360 403 OFFCURVE",
"335 403 CURVE SMOOTH",
"310 403 OFFCURVE",
"290 424 OFFCURVE",
"290 448 CURVE SMOOTH"
);
},
{
closed = 1;
nodes = (
"318 440 OFFCURVE",
"325 433 OFFCURVE",
"334 433 CURVE SMOOTH",
"342 433 OFFCURVE",
"349 440 OFFCURVE",
"349 449 CURVE SMOOTH",
"349 458 OFFCURVE",
"342 465 OFFCURVE",
"334 465 CURVE SMOOTH",
"325 465 OFFCURVE",
"318 458 OFFCURVE",
"318 449 CURVE SMOOTH"
);
}
);
width = 410;
}
);
unicode = 006F;
},
{
glyphname = p;
lastChange = "2019-12-22 14:36:52 +0000";
layers = (
{
layerId = "B1BCE86B-A7FB-414A-B0E3-B1B1CA0865E7";
paths = (
{
closed = 1;
nodes = (
"30 423 OFFCURVE",
"97 494 OFFCURVE",
"157 494 CURVE SMOOTH",
"217 494 OFFCURVE",
"273 443 OFFCURVE",
"273 326 CURVE SMOOTH",
"273 246 OFFCURVE",
"183 68 OFFCURVE",
"183 68 CURVE",
"147 86 LINE",
"147 86 OFFCURVE",
"234 261 OFFCURVE",
"234 321 CURVE SMOOTH",
"234 370 OFFCURVE",
"217 443 OFFCURVE",
"157 444 CURVE SMOOTH",
"97 445 OFFCURVE",
"75 395 OFFCURVE",
"75 371 CURVE SMOOTH",
"75 346 OFFCURVE",
"87 303 OFFCURVE",
"117 303 CURVE SMOOTH",
"147 303 OFFCURVE",
"142 328 OFFCURVE",
"142 340 CURVE SMOOTH",
"142 355 OFFCURVE",
"156 358 OFFCURVE",
"163 358 CURVE SMOOTH",
"169 358 OFFCURVE",
"184 358 OFFCURVE",
"184 339 CURVE SMOOTH",
"184 292 OFFCURVE",
"155 253 OFFCURVE",
"117 253 CURVE SMOOTH",
"80 253 OFFCURVE",
"30 313 OFFCURVE",
"30 370 CURVE SMOOTH"
);
},
{
closed = 1;
nodes = (
"112 70 OFFCURVE",
"132 89 OFFCURVE",
"157 89 CURVE SMOOTH",
"181 89 OFFCURVE",
"201 70 OFFCURVE",
"201 45 CURVE SMOOTH",
"201 21 OFFCURVE",
"181 1 OFFCURVE",
"157 1 CURVE SMOOTH",
"132 1 OFFCURVE",
"112 21 OFFCURVE",
"112 45 CURVE SMOOTH"
);
},
{
closed = 1;
nodes = (
"141 37 OFFCURVE",
"147 30 OFFCURVE",
"156 30 CURVE SMOOTH",
"165 30 OFFCURVE",
"172 37 OFFCURVE",
"172 46 CURVE SMOOTH",
"172 55 OFFCURVE",
"165 62 OFFCURVE",
"156 62 CURVE SMOOTH",
"147 62 OFFCURVE",
"141 55 OFFCURVE",
"141 46 CURVE SMOOTH"
);
}
);
width = 303;
}
);
unicode = 0070;
},
{
glyphname = q;
lastChange = "2019-12-22 14:41:24 +0000";
layers = (
{
layerId = "B1BCE86B-A7FB-414A-B0E3-B1B1CA0865E7";
paths = (
{
closed = 1;
nodes = (
"30 463 OFFCURVE",
"49 482 OFFCURVE",
"74 482 CURVE SMOOTH",
"99 482 OFFCURVE",
"119 463 OFFCURVE",
"119 438 CURVE SMOOTH",
"119 413 OFFCURVE",
"99 394 OFFCURVE",
"74 394 CURVE SMOOTH",
"49 394 OFFCURVE",
"30 413 OFFCURVE",
"30 438 CURVE SMOOTH"
);
},
{
closed = 1;
nodes = (
"58 431 OFFCURVE",
"65 423 OFFCURVE",
"74 423 CURVE SMOOTH",
"82 423 OFFCURVE",
"89 431 OFFCURVE",
"89 439 CURVE SMOOTH",
"89 448 OFFCURVE",
"82 455 OFFCURVE",
"74 455 CURVE SMOOTH",
"65 455 OFFCURVE",
"58 448 OFFCURVE",
"58 439 CURVE SMOOTH"
);
},
{
closed = 1;
nodes = (
"167 70 OFFCURVE",
"186 89 OFFCURVE",
"211 89 CURVE SMOOTH",
"236 89 OFFCURVE",
"256 70 OFFCURVE",
"256 45 CURVE SMOOTH",
"256 21 OFFCURVE",
"236 1 OFFCURVE",
"211 1 CURVE SMOOTH",
"186 1 OFFCURVE",
"167 21 OFFCURVE",
"167 45 CURVE SMOOTH"
);
},
{
closed = 1;
nodes = (
"197 38 OFFCURVE",
"204 32 OFFCURVE",
"212 32 CURVE SMOOTH",
"221 32 OFFCURVE",
"228 38 OFFCURVE",
"228 47 CURVE SMOOTH",
"228 56 OFFCURVE",
"221 63 OFFCURVE",
"212 63 CURVE SMOOTH",
"204 63 OFFCURVE",
"197 56 OFFCURVE",
"197 47 CURVE SMOOTH"
);
},
{
closed = 1;
nodes = (
"314 403 OFFCURVE",
"333 424 OFFCURVE",
"358 424 CURVE SMOOTH",
"383 424 OFFCURVE",
"403 403 OFFCURVE",
"403 379 CURVE SMOOTH",
"403 355 OFFCURVE",
"383 335 OFFCURVE",
"358 335 CURVE SMOOTH",
"333 335 OFFCURVE",
"314 355 OFFCURVE",
"314 379 CURVE SMOOTH"
);
},
{
closed = 1;
nodes = (
"342 371 OFFCURVE",
"349 364 OFFCURVE",
"358 364 CURVE SMOOTH",
"366 364 OFFCURVE",
"373 371 OFFCURVE",
"373 380 CURVE SMOOTH",
"373 389 OFFCURVE",
"366 396 OFFCURVE",
"358 396 CURVE SMOOTH",
"349 396 OFFCURVE",
"342 389 OFFCURVE",
"342 380 CURVE SMOOTH"
);
},
{
closed = 1;
nodes = (
"191 461 LINE",
"232 461 LINE",
"232 82 LINE",
"191 82 LINE"
);
},
{
closed = 1;
nodes = (
"89 468 OFFCURVE",
"164 500 OFFCURVE",
"201 493 CURVE SMOOTH",
"246 484 OFFCURVE",
"353 411 OFFCURVE",
"353 411 CURVE",
"332 380 LINE",
"333 383 OFFCURVE",
"249 437 OFFCURVE",
"210 443 CURVE SMOOTH",
"176 448 OFFCURVE",
"108 423 OFFCURVE",
"108 423 CURVE",
"89 468 LINE"
);
}
);
width = 433;
}
);
unicode = 0071;
},
{
glyphname = r;
lastChange = "2019-12-22 14:45:05 +0000";
layers = (
{
layerId = "B1BCE86B-A7FB-414A-B0E3-B1B1CA0865E7";
paths = (
{
closed = 1;
nodes = (
"30 449 OFFCURVE",
"50 469 OFFCURVE",
"75 469 CURVE SMOOTH",
"100 469 OFFCURVE",
"120 449 OFFCURVE",
"120 425 CURVE SMOOTH",
"120 400 OFFCURVE",
"100 380 OFFCURVE",
"75 380 CURVE SMOOTH",
"50 380 OFFCURVE",
"30 400 OFFCURVE",
"30 425 CURVE SMOOTH"
);
},
{
closed = 1;
nodes = (
"58 416 OFFCURVE",
"65 410 OFFCURVE",
"74 410 CURVE SMOOTH",
"82 410 OFFCURVE",
"89 416 OFFCURVE",
"89 425 CURVE SMOOTH",
"89 434 OFFCURVE",
"82 441 OFFCURVE",
"74 441 CURVE SMOOTH",
"65 441 OFFCURVE",
"58 434 OFFCURVE",
"58 425 CURVE SMOOTH"
);
},
{
closed = 1;
nodes = (
"111 446 LINE",
"513 446 LINE",
"513 404 LINE",
"111 404 LINE"
);
},
{
closed = 1;
nodes = (
"475 420 LINE",
"513 405 LINE",
"359 1 LINE",
"321 15 LINE"
);
}
);
width = 543;
}
);
unicode = 0072;
},
{
glyphname = s;
lastChange = "2019-12-23 14:55:31 +0000";
layers = (
{
layerId = "B1BCE86B-A7FB-414A-B0E3-B1B1CA0865E7";
paths = (
{
closed = 1;
nodes = (
"28 389 OFFCURVE",
"65 420 OFFCURVE",
"65 420 CURVE",
"99 401 LINE",
"99 401 OFFCURVE",
"79 376 OFFCURVE",
"79 333 CURVE SMOOTH",
"79 296 OFFCURVE",
"79 255 OFFCURVE",
"80 204 CURVE SMOOTH",
"82 123 OFFCURVE",
"153 52 OFFCURVE",
"194 51 CURVE SMOOTH",
"233 50 OFFCURVE",
"241 50 OFFCURVE",
"277 51 CURVE SMOOTH",
"319 52 OFFCURVE",
"383 123 OFFCURVE",
"386 204 CURVE SMOOTH",
"388 254 OFFCURVE",
"386 295 OFFCURVE",
"386 333 CURVE SMOOTH",
"386 372 OFFCURVE",
"359 401 OFFCURVE",
"359 403 CURVE",
"396 420 LINE",
"396 421 LINE",
"396 421 OFFCURVE",
"437 381 OFFCURVE",
"435 311 CURVE SMOOTH",
"434 265 OFFCURVE",
"437 261 OFFCURVE",
"436 202 CURVE SMOOTH",
"435 122 OFFCURVE",
"348 1 OFFCURVE",
"280 1 CURVE SMOOTH",
"243 1 OFFCURVE",
"228 1 OFFCURVE",
"190 1 CURVE SMOOTH",
"123 1 OFFCURVE",
"35 118 OFFCURVE",
"32 202 CURVE SMOOTH",
"30 267 OFFCURVE",
"31 271 OFFCURVE",
"30 311 CURVE SMOOTH"
);
},
{
closed = 1;
nodes = (
"51 464 OFFCURVE",
"71 484 OFFCURVE",
"96 484 CURVE SMOOTH",
"121 484 OFFCURVE",
"141 464 OFFCURVE",
"141 440 CURVE SMOOTH",
"141 415 OFFCURVE",
"121 396 OFFCURVE",
"96 396 CURVE SMOOTH",
"71 396 OFFCURVE",
"51 415 OFFCURVE",
"51 440 CURVE SMOOTH"
);
},
{
closed = 1;
nodes = (
"80 433 OFFCURVE",
"86 425 OFFCURVE",
"95 425 CURVE SMOOTH",
"104 425 OFFCURVE",
"111 433 OFFCURVE",
"111 441 CURVE SMOOTH",
"111 450 OFFCURVE",
"104 457 OFFCURVE",
"95 457 CURVE SMOOTH",
"86 457 OFFCURVE",
"80 450 OFFCURVE",
"80 441 CURVE SMOOTH"
);
},
{
closed = 1;
nodes = (
"121 464 LINE",
"337 464 LINE",
"337 418 LINE",
"121 418 LINE"
);
},
{
closed = 1;
nodes = (
"322 463 OFFCURVE",
"343 483 OFFCURVE",
"367 483 CURVE SMOOTH",
"392 483 OFFCURVE",
"413 463 OFFCURVE",
"413 439 CURVE SMOOTH",
"413 414 OFFCURVE",
"392 394 OFFCURVE",
"367 394 CURVE SMOOTH",
"343 394 OFFCURVE",
"322 414 OFFCURVE",
"322 439 CURVE SMOOTH"
);
},
{
closed = 1;
nodes = (
"350 430 OFFCURVE",
"358 424 OFFCURVE",
"366 424 CURVE SMOOTH",
"374 424 OFFCURVE",
"382 430 OFFCURVE",
"382 439 CURVE SMOOTH",
"382 448 OFFCURVE",
"374 455 OFFCURVE",
"366 455 CURVE SMOOTH",
"358 455 OFFCURVE",
"350 448 OFFCURVE",
"350 439 CURVE SMOOTH"
);
}
);
width = 466;
}
);
unicode = 0073;
},
{
glyphname = t;
lastChange = "2019-12-23 15:35:17 +0000";
layers = (
{
layerId = "B1BCE86B-A7FB-414A-B0E3-B1B1CA0865E7";
paths = (
{
closed = 1;
nodes = (
"30 471 OFFCURVE",
"50 491 OFFCURVE",
"75 491 CURVE SMOOTH",
"100 491 OFFCURVE",
"120 471 OFFCURVE",
"120 447 CURVE SMOOTH",
"120 422 OFFCURVE",
"100 403 OFFCURVE",
"75 403 CURVE SMOOTH",
"50 403 OFFCURVE",
"30 422 OFFCURVE",
"30 447 CURVE SMOOTH"
);
},
{
closed = 1;
nodes = (
"59 439 OFFCURVE",
"65 432 OFFCURVE",
"74 432 CURVE SMOOTH",
"83 432 OFFCURVE",
"89 439 OFFCURVE",
"89 448 CURVE SMOOTH",
"89 457 OFFCURVE",
"83 464 OFFCURVE",
"74 464 CURVE SMOOTH",
"65 464 OFFCURVE",
"59 457 OFFCURVE",
"59 448 CURVE SMOOTH"
);
},
{
closed = 1;
nodes = (
"105 467 LINE",
"311 467 LINE",
"311 426 LINE",
"105 426 LINE"
);
},
{
closed = 1;
nodes = (
"164 70 OFFCURVE",
"183 89 OFFCURVE",
"208 89 CURVE SMOOTH",
"233 89 OFFCURVE",
"253 70 OFFCURVE",
"253 45 CURVE SMOOTH",
"253 21 OFFCURVE",
"233 1 OFFCURVE",
"208 1 CURVE SMOOTH",
"183 1 OFFCURVE",
"164 21 OFFCURVE",
"164 45 CURVE SMOOTH"
);
},
{
closed = 1;
nodes = (
"189 455 LINE",
"230 455 LINE",
"230 76 LINE",
"189 76 LINE"
);
},
{
closed = 1;
nodes = (
"194 38 OFFCURVE",
"201 32 OFFCURVE",
"209 32 CURVE SMOOTH",
"218 32 OFFCURVE",
"225 38 OFFCURVE",
"225 47 CURVE SMOOTH",
"225 56 OFFCURVE",
"218 63 OFFCURVE",
"209 63 CURVE SMOOTH",
"201 63 OFFCURVE",
"194 56 OFFCURVE",
"194 47 CURVE SMOOTH"
);
},
{
closed = 1;
nodes = (
"295 470 OFFCURVE",
"316 490 OFFCURVE",
"340 490 CURVE SMOOTH",
"365 490 OFFCURVE",
"386 470 OFFCURVE",
"386 446 CURVE SMOOTH",
"386 421 OFFCURVE",
"365 401 OFFCURVE",
"340 401 CURVE SMOOTH",
"316 401 OFFCURVE",
"295 421 OFFCURVE",
"295 446 CURVE SMOOTH"
);
},
{
closed = 1;
nodes = (
"323 438 OFFCURVE",
"331 431 OFFCURVE",
"339 431 CURVE SMOOTH",
"347 431 OFFCURVE",
"355 438 OFFCURVE",
"355 446 CURVE SMOOTH",
"355 455 OFFCURVE",
"347 462 OFFCURVE",
"339 462 CURVE SMOOTH",
"331 462 OFFCURVE",
"323 455 OFFCURVE",
"323 446 CURVE SMOOTH"
);
}
);
width = 416;
}
);
unicode = 0074;
},
{
glyphname = u;
lastChange = "2019-12-23 15:43:22 +0000";
layers = (
{
layerId = "B1BCE86B-A7FB-414A-B0E3-B1B1CA0865E7";
paths = (
{
closed = 1;
nodes = (
"30 434 OFFCURVE",
"50 453 OFFCURVE",
"75 453 CURVE SMOOTH",
"100 453 OFFCURVE",
"120 434 OFFCURVE",
"120 409 CURVE SMOOTH",
"120 385 OFFCURVE",
"100 364 OFFCURVE",
"75 364 CURVE SMOOTH",
"50 364 OFFCURVE",
"30 385 OFFCURVE",
"30 409 CURVE SMOOTH"
);
},
{
closed = 1;
nodes = (
"54 380 LINE",
"96 380 LINE",
"96 1 LINE",
"54 1 LINE"
);
},
{
closed = 1;
nodes = (
"59 401 OFFCURVE",
"65 394 OFFCURVE",
"74 394 CURVE SMOOTH",
"83 394 OFFCURVE",
"89 401 OFFCURVE",
"89 410 CURVE SMOOTH",
"89 419 OFFCURVE",
"83 426 OFFCURVE",
"74 426 CURVE SMOOTH",
"65 426 OFFCURVE",
"59 419 OFFCURVE",
"59 410 CURVE SMOOTH"
);
}
);
width = 150;
}
);
unicode = 0075;
},
{
glyphname = v;
lastChange = "2019-12-23 15:42:59 +0000";
layers = (
{
layerId = "B1BCE86B-A7FB-414A-B0E3-B1B1CA0865E7";
paths = (
{
closed = 1;
nodes = (
"30 434 OFFCURVE",
"50 453 OFFCURVE",
"75 453 CURVE SMOOTH",
"100 453 OFFCURVE",
"120 434 OFFCURVE",
"120 409 CURVE SMOOTH",
"120 385 OFFCURVE",
"100 364 OFFCURVE",
"75 364 CURVE SMOOTH",
"50 364 OFFCURVE",
"30 385 OFFCURVE",
"30 409 CURVE SMOOTH"
);
},
{
closed = 1;
nodes = (
"54 380 LINE",
"96 380 LINE",
"96 1 LINE",
"54 1 LINE"
);
},
{
closed = 1;
nodes = (
"59 401 OFFCURVE",
"65 394 OFFCURVE",
"74 394 CURVE SMOOTH",
"83 394 OFFCURVE",
"89 401 OFFCURVE",
"89 410 CURVE SMOOTH",
"89 419 OFFCURVE",
"83 426 OFFCURVE",
"74 426 CURVE SMOOTH",
"65 426 OFFCURVE",
"59 419 OFFCURVE",
"59 410 CURVE SMOOTH"
);
}
);
width = 150;
}
);
unicode = 0076;
},
{
glyphname = w;
lastChange = "2019-12-23 15:43:10 +0000";
layers = (
{
layerId = "B1BCE86B-A7FB-414A-B0E3-B1B1CA0865E7";
paths = (
{
closed = 1;
nodes = (
"30 434 OFFCURVE",
"50 453 OFFCURVE",
"75 453 CURVE SMOOTH",
"100 453 OFFCURVE",
"120 434 OFFCURVE",
"120 409 CURVE SMOOTH",
"120 385 OFFCURVE",
"100 364 OFFCURVE",
"75 364 CURVE SMOOTH",
"50 364 OFFCURVE",
"30 385 OFFCURVE",
"30 409 CURVE SMOOTH"
);
},
{
closed = 1;
nodes = (
"54 380 LINE",
"96 380 LINE",
"96 1 LINE",
"54 1 LINE"
);
},
{
closed = 1;
nodes = (
"59 401 OFFCURVE",
"65 394 OFFCURVE",
"74 394 CURVE SMOOTH",
"83 394 OFFCURVE",
"89 401 OFFCURVE",
"89 410 CURVE SMOOTH",
"89 419 OFFCURVE",
"83 426 OFFCURVE",
"74 426 CURVE SMOOTH",
"65 426 OFFCURVE",
"59 419 OFFCURVE",
"59 410 CURVE SMOOTH"
);
}
);
width = 150;
}
);
unicode = 0077;
},
{
glyphname = x;
lastChange = "2019-12-23 15:54:53 +0000";
layers = (
{
layerId = "B1BCE86B-A7FB-414A-B0E3-B1B1CA0865E7";
paths = (
{
closed = 1;
nodes = (
"30 365 OFFCURVE",
"67 419 OFFCURVE",
"67 419 CURVE",
"103 408 LINE",
"103 408 OFFCURVE",
"77 339 OFFCURVE",
"77 256 CURVE SMOOTH",
"77 191 OFFCURVE",
"105 50 OFFCURVE",
"236 49 CURVE SMOOTH",
"368 48 OFFCURVE",
"396 191 OFFCURVE",
"396 256 CURVE SMOOTH",
"396 339 OFFCURVE",
"364 411 OFFCURVE",
"364 411 CURVE",
"400 423 LINE",
"400 423 LINE",
"400 423 OFFCURVE",
"435 365 OFFCURVE",
"435 260 CURVE SMOOTH",
"435 72 OFFCURVE",
"333 1 OFFCURVE",
"236 1 CURVE SMOOTH",
"138 1 OFFCURVE",
"30 97 OFFCURVE",
"30 260 CURVE SMOOTH"
);
},
{
closed = 1;
nodes = (
"54 465 OFFCURVE",
"75 484 OFFCURVE",
"100 484 CURVE SMOOTH",
"124 484 OFFCURVE",
"145 465 OFFCURVE",
"145 440 CURVE SMOOTH",
"145 415 OFFCURVE",
"124 395 OFFCURVE",
"100 395 CURVE SMOOTH",
"75 395 OFFCURVE",
"54 415 OFFCURVE",
"54 440 CURVE SMOOTH"
);
},
{
closed = 1;
nodes = (
"83 432 OFFCURVE",
"90 425 OFFCURVE",
"98 425 CURVE SMOOTH",
"107 425 OFFCURVE",
"114 432 OFFCURVE",
"114 441 CURVE SMOOTH",
"114 450 OFFCURVE",
"107 456 OFFCURVE",
"98 456 CURVE SMOOTH",
"90 456 OFFCURVE",
"83 450 OFFCURVE",
"83 441 CURVE SMOOTH"
);
},
{
closed = 1;
nodes = (
"193 467 OFFCURVE",
"214 486 OFFCURVE",
"239 486 CURVE SMOOTH",
"263 486 OFFCURVE",
"283 467 OFFCURVE",
"283 442 CURVE SMOOTH",
"283 418 OFFCURVE",
"263 398 OFFCURVE",
"239 398 CURVE SMOOTH",
"214 398 OFFCURVE",
"193 418 OFFCURVE",
"193 442 CURVE SMOOTH"
);
},
{
closed = 1;
nodes = (
"216 412 LINE",
"257 412 LINE",
"257 33 LINE",
"216 33 LINE"
);
},
{
closed = 1;
nodes = (
"222 434 OFFCURVE",
"229 427 OFFCURVE",
"238 427 CURVE SMOOTH",
"246 427 OFFCURVE",
"253 434 OFFCURVE",
"253 443 CURVE SMOOTH",
"253 452 OFFCURVE",
"246 459 OFFCURVE",
"238 459 CURVE SMOOTH",
"229 459 OFFCURVE",
"222 452 OFFCURVE",
"222 443 CURVE SMOOTH"
);
},
{
closed = 1;
nodes = (
"327 467 OFFCURVE",
"347 487 OFFCURVE",
"372 487 CURVE SMOOTH",
"396 487 OFFCURVE",
"417 467 OFFCURVE",
"417 443 CURVE SMOOTH",
"417 418 OFFCURVE",
"396 398 OFFCURVE",
"372 398 CURVE SMOOTH",
"347 398 OFFCURVE",
"327 418 OFFCURVE",
"327 443 CURVE SMOOTH"
);
},
{
closed = 1;
nodes = (
"355 435 OFFCURVE",
"362 428 OFFCURVE",
"370 428 CURVE SMOOTH",
"379 428 OFFCURVE",
"386 435 OFFCURVE",
"386 444 CURVE SMOOTH",
"386 453 OFFCURVE",
"379 459 OFFCURVE",
"370 459 CURVE SMOOTH",
"362 459 OFFCURVE",
"355 453 OFFCURVE",
"355 444 CURVE SMOOTH"
);
}
);
width = 465;
}
);
unicode = 0078;
},
{
glyphname = y;
lastChange = "2019-12-20 16:40:59 +0000";
layers = (
{
layerId = "B1BCE86B-A7FB-414A-B0E3-B1B1CA0865E7";
paths = (
{
closed = 1;
nodes = (
"30 70 OFFCURVE",
"50 89 OFFCURVE",
"75 89 CURVE SMOOTH",
"100 89 OFFCURVE",
"120 70 OFFCURVE",
"120 45 CURVE SMOOTH",
"120 21 OFFCURVE",
"100 1 OFFCURVE",
"75 1 CURVE SMOOTH",
"50 1 OFFCURVE",
"30 21 OFFCURVE",
"30 45 CURVE SMOOTH"
);
},
{
closed = 1;
nodes = (
"60 38 OFFCURVE",
"67 32 OFFCURVE",
"76 32 CURVE SMOOTH",
"84 32 OFFCURVE",
"91 38 OFFCURVE",
"91 47 CURVE SMOOTH",
"91 56 OFFCURVE",
"84 63 OFFCURVE",
"76 63 CURVE SMOOTH",
"67 63 OFFCURVE",
"60 56 OFFCURVE",
"60 47 CURVE SMOOTH"
);
},
{
closed = 1;
nodes = (
"244 441 LINE",
"281 423 LINE",
"108 62 LINE",
"71 80 LINE"
);
},
{
closed = 1;
nodes = (
"112 69 LINE",
"449 69 LINE",
"449 23 LINE",
"112 23 LINE"
);
},
{
closed = 1;
nodes = (
"233 473 OFFCURVE",
"253 492 OFFCURVE",
"278 492 CURVE SMOOTH",
"303 492 OFFCURVE",
"322 473 OFFCURVE",
"322 448 CURVE SMOOTH",
"322 424 OFFCURVE",
"303 403 OFFCURVE",
"278 403 CURVE SMOOTH",
"253 403 OFFCURVE",
"233 424 OFFCURVE",
"233 448 CURVE SMOOTH"
);
},
{
closed = 1;
nodes = (
"261 440 OFFCURVE",
"268 434 OFFCURVE",
"277 434 CURVE SMOOTH",
"285 434 OFFCURVE",
"292 440 OFFCURVE",
"292 449 CURVE SMOOTH",
"292 458 OFFCURVE",
"285 465 OFFCURVE",
"277 465 CURVE SMOOTH",
"268 465 OFFCURVE",
"261 458 OFFCURVE",
"261 449 CURVE SMOOTH"
);
},
{
closed = 1;
nodes = (
"310 440 LINE",
"485 80 LINE",
"448 62 LINE",
"273 423 LINE"
);
},
{
closed = 1;
nodes = (
"434 70 OFFCURVE",
"454 91 OFFCURVE",
"479 91 CURVE",
"479 89 LINE",
"503 89 OFFCURVE",
"524 70 OFFCURVE",
"524 45 CURVE SMOOTH",
"524 21 OFFCURVE",
"503 1 OFFCURVE",
"479 1 CURVE SMOOTH",
"454 1 OFFCURVE",
"434 21 OFFCURVE",
"434 45 CURVE SMOOTH"
);
},
{
closed = 1;
nodes = (
"463 37 OFFCURVE",
"470 27 OFFCURVE",
"479 27 CURVE SMOOTH",
"487 27 OFFCURVE",
"494 37 OFFCURVE",
"494 45 CURVE SMOOTH",
"494 54 OFFCURVE",
"487 61 OFFCURVE",
"479 63 CURVE",
"470 63 OFFCURVE",
"463 54 OFFCURVE",
"463 45 CURVE SMOOTH"
);
}
);
width = 554;
}
);
unicode = 0079;
},
{
glyphname = z;
lastChange = "2019-12-20 16:38:25 +0000";
layers = (
{
layerId = "B1BCE86B-A7FB-414A-B0E3-B1B1CA0865E7";
paths = (
{
closed = 1;
nodes = (
"30 470 OFFCURVE",
"50 490 OFFCURVE",
"75 490 CURVE SMOOTH",
"100 490 OFFCURVE",
"120 470 OFFCURVE",
"120 446 CURVE SMOOTH",
"120 422 OFFCURVE",
"100 402 OFFCURVE",
"75 402 CURVE SMOOTH",
"50 402 OFFCURVE",
"30 422 OFFCURVE",
"30 446 CURVE SMOOTH"
);
},
{
closed = 1;
nodes = (
"45 42 LINE",
"506 42 LINE",
"476 14 LINE",
"87 405 LINE",
"117 434 LINE",
"506 42 LINE",
"506 1 LINE",
"45 1 LINE"
);
},
{
closed = 1;
nodes = (
"59 438 OFFCURVE",
"65 431 OFFCURVE",
"73 431 CURVE SMOOTH",
"83 431 OFFCURVE",
"89 438 OFFCURVE",
"89 447 CURVE SMOOTH",
"89 455 OFFCURVE",
"83 463 OFFCURVE",
"73 463 CURVE SMOOTH",
"65 463 OFFCURVE",
"59 455 OFFCURVE",
"59 447 CURVE SMOOTH"
);
},
{
closed = 1;
nodes = (
"344 440 LINE",
"374 412 LINE",
"243 272 LINE",
"213 300 LINE"
);
},
{
closed = 1;
nodes = (
"339 470 OFFCURVE",
"358 489 OFFCURVE",
"383 489 CURVE SMOOTH",
"408 489 OFFCURVE",
"428 470 OFFCURVE",
"428 445 CURVE SMOOTH",
"428 420 OFFCURVE",
"408 400 OFFCURVE",
"383 400 CURVE SMOOTH",
"358 400 OFFCURVE",
"339 420 OFFCURVE",
"339 445 CURVE SMOOTH"
);
},
{
closed = 1;
nodes = (
"367 437 OFFCURVE",
"373 430 OFFCURVE",
"383 430 CURVE SMOOTH",
"391 430 OFFCURVE",
"398 437 OFFCURVE",
"398 446 CURVE SMOOTH",
"398 455 OFFCURVE",
"391 461 OFFCURVE",
"383 461 CURVE SMOOTH",
"373 461 OFFCURVE",
"367 455 OFFCURVE",
"367 446 CURVE SMOOTH"
);
}
);
width = 536;
}
);
unicode = 007A;
},
{
glyphname = zero;
lastChange = "2019-12-27 09:46:19 +0000";
layers = (
{
layerId = "B1BCE86B-A7FB-414A-B0E3-B1B1CA0865E7";
paths = (
{
closed = 1;
nodes = (
"30 518 OFFCURVE",
"154 654 OFFCURVE",
"313 668 CURVE",
"313 629 LINE",
"176 615 OFFCURVE",
"71 498 OFFCURVE",
"71 355 CURVE SMOOTH",
"71 211 OFFCURVE",
"176 94 OFFCURVE",
"313 80 CURVE",
"313 36 LINE",
"313 36 LINE",
"155 50 OFFCURVE",
"30 186 OFFCURVE",
"30 352 CURVE SMOOTH"
);
},
{
closed = 1;
nodes = (
"290 83 OFFCURVE",
"313 106 OFFCURVE",
"341 106 CURVE",
"341 106 LINE",
"370 106 OFFCURVE",
"393 83 OFFCURVE",
"393 55 CURVE SMOOTH",
"393 26 OFFCURVE",
"370 4 OFFCURVE",
"341 4 CURVE SMOOTH",
"313 4 OFFCURVE",
"290 26 OFFCURVE",
"290 55 CURVE SMOOTH"
);
},
{
closed = 1;
nodes = (
"290 676 OFFCURVE",
"314 699 OFFCURVE",
"342 699 CURVE",
"342 699 LINE",
"371 699 OFFCURVE",
"394 676 OFFCURVE",
"394 648 CURVE SMOOTH",
"394 620 OFFCURVE",
"371 597 OFFCURVE",
"342 597 CURVE SMOOTH",
"314 597 OFFCURVE",
"290 620 OFFCURVE",
"290 648 CURVE SMOOTH"
);
},
{
closed = 1;
nodes = (
"322 640 OFFCURVE",
"331 631 OFFCURVE",
"340 631 CURVE SMOOTH",
"351 631 OFFCURVE",
"358 640 OFFCURVE",
"358 649 CURVE SMOOTH",
"358 660 OFFCURVE",
"351 667 OFFCURVE",
"340 667 CURVE SMOOTH",
"331 667 OFFCURVE",
"322 660 OFFCURVE",
"322 649 CURVE SMOOTH"
);
},
{
closed = 1;
nodes = (
"323 46 OFFCURVE",
"331 37 OFFCURVE",
"340 37 CURVE SMOOTH",
"351 37 OFFCURVE",
"358 46 OFFCURVE",
"358 55 CURVE SMOOTH",
"358 66 OFFCURVE",
"351 73 OFFCURVE",
"340 73 CURVE SMOOTH",
"331 73 OFFCURVE",
"323 66 OFFCURVE",
"323 55 CURVE SMOOTH"
);
},
{
closed = 1;
nodes = (
"372 81 LINE",
"372 81 LINE",
"505 97 OFFCURVE",
"608 214 OFFCURVE",
"608 355 CURVE SMOOTH",
"608 495 OFFCURVE",
"505 612 OFFCURVE",
"372 628 CURVE",
"372 667 LINE",
"529 651 OFFCURVE",
"651 516 OFFCURVE",
"651 352 CURVE SMOOTH",
"651 187 OFFCURVE",
"528 52 OFFCURVE",
"372 36 CURVE"
);
}
);
width = 681;
}
);
unicode = 0030;
},
{
glyphname = one;
lastChange = "2019-12-27 09:47:27 +0000";
layers = (
{
layerId = "B1BCE86B-A7FB-414A-B0E3-B1B1CA0865E7";
paths = (
{
closed = 1;
nodes = (
"152 675 OFFCURVE",
"182 705 OFFCURVE",
"218 705 CURVE SMOOTH",
"255 705 OFFCURVE",
"283 675 OFFCURVE",
"283 640 CURVE SMOOTH",
"283 604 OFFCURVE",
"255 575 OFFCURVE",
"218 575 CURVE SMOOTH",
"182 575 OFFCURVE",
"152 604 OFFCURVE",
"152 640 CURVE SMOOTH"
);
},
{
closed = 1;
nodes = (
"156 100 OFFCURVE",
"185 128 OFFCURVE",
"222 128 CURVE SMOOTH",
"258 128 OFFCURVE",
"288 100 OFFCURVE",
"288 65 CURVE SMOOTH",
"288 28 OFFCURVE",
"258 0 OFFCURVE",
"222 0 CURVE SMOOTH",
"185 0 OFFCURVE",
"156 28 OFFCURVE",
"156 65 CURVE SMOOTH"
);
},
{
closed = 1;
nodes = (
"193 628 OFFCURVE",
"203 618 OFFCURVE",
"216 618 CURVE SMOOTH",
"228 618 OFFCURVE",
"238 628 OFFCURVE",
"238 641 CURVE SMOOTH",
"238 654 OFFCURVE",
"228 664 OFFCURVE",
"216 664 CURVE SMOOTH",
"203 664 OFFCURVE",
"193 654 OFFCURVE",
"193 641 CURVE SMOOTH"
);
},
{
closed = 1;
nodes = (
"200 54 OFFCURVE",
"210 44 OFFCURVE",
"223 44 CURVE SMOOTH",
"235 44 OFFCURVE",
"245 54 OFFCURVE",
"245 67 CURVE SMOOTH",
"245 80 OFFCURVE",
"235 90 OFFCURVE",
"223 90 CURVE SMOOTH",
"210 90 OFFCURVE",
"200 80 OFFCURVE",
"200 67 CURVE SMOOTH"
);
},
{
closed = 1;
nodes = (
"279 622 LINE",
"779 119 LINE",
"738 76 LINE",
"237 579 LINE"
);
},
{
closed = 1;
nodes = (
"718 676 OFFCURVE",
"747 706 OFFCURVE",
"784 706 CURVE SMOOTH",
"820 706 OFFCURVE",
"850 676 OFFCURVE",
"850 641 CURVE SMOOTH",
"850 605 OFFCURVE",
"820 576 OFFCURVE",
"784 576 CURVE SMOOTH",
"747 576 OFFCURVE",
"718 605 OFFCURVE",
"718 641 CURVE SMOOTH"
);
},
{
closed = 1;
nodes = (
"730 101 OFFCURVE",
"760 130 OFFCURVE",
"796 130 CURVE SMOOTH",
"832 130 OFFCURVE",
"862 101 OFFCURVE",
"862 65 CURVE SMOOTH",
"862 29 OFFCURVE",
"832 0 OFFCURVE",
"796 0 CURVE SMOOTH",
"760 0 OFFCURVE",
"730 29 OFFCURVE",
"730 65 CURVE SMOOTH"
);
},
{
closed = 1;
nodes = (
"760 629 OFFCURVE",
"769 619 OFFCURVE",
"782 619 CURVE SMOOTH",
"795 619 OFFCURVE",
"805 629 OFFCURVE",
"805 642 CURVE SMOOTH",
"805 655 OFFCURVE",
"795 665 OFFCURVE",
"782 665 CURVE SMOOTH",
"769 665 OFFCURVE",
"760 655 OFFCURVE",
"760 642 CURVE SMOOTH"
);
},
{
closed = 1;
nodes = (
"773 53 OFFCURVE",
"783 43 OFFCURVE",
"795 43 CURVE SMOOTH",
"808 43 OFFCURVE",
"818 53 OFFCURVE",
"818 66 CURVE SMOOTH",
"818 79 OFFCURVE",
"808 89 OFFCURVE",
"795 89 CURVE SMOOTH",
"783 89 OFFCURVE",
"773 79 OFFCURVE",
"773 66 CURVE SMOOTH"
);
}
);
width = 1000;
}
);
unicode = 0031;
},
{
glyphname = two;
lastChange = "2019-12-27 09:49:17 +0000";
layers = (
{
layerId = "B1BCE86B-A7FB-414A-B0E3-B1B1CA0865E7";
paths = (
{
closed = 1;
nodes = (
"30 88 OFFCURVE",
"56 114 OFFCURVE",
"87 114 CURVE SMOOTH",
"120 114 OFFCURVE",
"145 88 OFFCURVE",
"145 57 CURVE SMOOTH",
"145 26 OFFCURVE",
"120 1 OFFCURVE",
"87 1 CURVE SMOOTH",
"56 1 OFFCURVE",
"30 26 OFFCURVE",
"30 57 CURVE SMOOTH"
);
},
{
closed = 1;
nodes = (
"69 48 OFFCURVE",
"78 39 OFFCURVE",
"87 39 CURVE SMOOTH",
"99 39 OFFCURVE",
"108 48 OFFCURVE",
"108 59 CURVE SMOOTH",
"108 70 OFFCURVE",
"99 80 OFFCURVE",
"87 80 CURVE SMOOTH",
"78 80 OFFCURVE",
"69 70 OFFCURVE",
"69 59 CURVE SMOOTH"
);
},
{
closed = 1;
nodes = (
"131 89 LINE",
"538 89 LINE",
"538 31 LINE",
"131 31 LINE"
);
},
{
closed = 1;
nodes = (
"162 667 OFFCURVE",
"187 693 OFFCURVE",
"219 693 CURVE SMOOTH",
"251 693 OFFCURVE",
"276 667 OFFCURVE",
"276 636 CURVE SMOOTH",
"276 606 OFFCURVE",
"251 580 OFFCURVE",
"219 580 CURVE SMOOTH",
"187 580 OFFCURVE",
"162 606 OFFCURVE",
"162 636 CURVE SMOOTH"
);
},
{
closed = 1;
nodes = (
"198 626 OFFCURVE",
"206 618 OFFCURVE",
"217 618 CURVE SMOOTH",
"229 618 OFFCURVE",
"237 626 OFFCURVE",
"237 638 CURVE SMOOTH",
"237 649 OFFCURVE",
"229 659 OFFCURVE",
"217 659 CURVE SMOOTH",
"206 659 OFFCURVE",
"198 649 OFFCURVE",
"198 638 CURVE SMOOTH"
);
},
{
closed = 1;
nodes = (
"251 665 LINE",
"539 665 LINE",
"539 607 LINE",
"251 607 LINE"
);
},
{
closed = 1;
nodes = (
"522 88 OFFCURVE",
"548 114 OFFCURVE",
"580 114 CURVE SMOOTH",
"611 114 OFFCURVE",
"636 88 OFFCURVE",
"636 58 CURVE SMOOTH",
"636 26 OFFCURVE",
"611 1 OFFCURVE",
"580 1 CURVE SMOOTH",
"548 1 OFFCURVE",
"522 26 OFFCURVE",
"522 58 CURVE SMOOTH"
);
},
{
closed = 1;
nodes = (
"525 668 OFFCURVE",
"550 694 OFFCURVE",
"582 694 CURVE SMOOTH",
"613 694 OFFCURVE",
"639 668 OFFCURVE",
"639 637 CURVE SMOOTH",
"639 606 OFFCURVE",
"613 580 OFFCURVE",
"582 580 CURVE SMOOTH",
"550 580 OFFCURVE",
"525 606 OFFCURVE",
"525 637 CURVE SMOOTH"
);
},
{
closed = 1;
nodes = (
"553 607 LINE",
"606 607 LINE",
"606 91 LINE",
"553 91 LINE"
);
},
{
closed = 1;
nodes = (
"558 47 OFFCURVE",
"568 37 OFFCURVE",
"579 37 CURVE SMOOTH",
"589 37 OFFCURVE",
"598 47 OFFCURVE",
"598 58 CURVE SMOOTH",
"598 69 OFFCURVE",
"589 77 OFFCURVE",
"579 77 CURVE SMOOTH",
"568 77 OFFCURVE",
"558 69 OFFCURVE",
"558 58 CURVE SMOOTH"
);
},
{
closed = 1;
nodes = (
"561 627 OFFCURVE",
"569 618 OFFCURVE",
"581 618 CURVE SMOOTH",
"591 618 OFFCURVE",
"599 627 OFFCURVE",
"599 638 CURVE SMOOTH",
"599 650 OFFCURVE",
"591 659 OFFCURVE",
"581 659 CURVE SMOOTH",
"569 659 OFFCURVE",
"561 650 OFFCURVE",
"561 638 CURVE SMOOTH"
);
}
);
width = 669;
}
);
unicode = 0032;
},
{
glyphname = three;
lastChange = "2019-12-27 09:50:35 +0000";
layers = (
{
layerId = "B1BCE86B-A7FB-414A-B0E3-B1B1CA0865E7";
paths = (
{
closed = 1;
nodes = (
"30 88 OFFCURVE",
"54 112 OFFCURVE",
"84 112 CURVE SMOOTH",
"114 112 OFFCURVE",
"139 88 OFFCURVE",
"139 58 CURVE SMOOTH",
"139 28 OFFCURVE",
"114 4 OFFCURVE",
"84 4 CURVE SMOOTH",
"54 4 OFFCURVE",
"30 28 OFFCURVE",
"30 58 CURVE SMOOTH"
);
},
{
closed = 1;
nodes = (
"66 50 OFFCURVE",
"75 41 OFFCURVE",
"85 41 CURVE SMOOTH",
"96 41 OFFCURVE",
"104 50 OFFCURVE",
"104 60 CURVE SMOOTH",
"104 71 OFFCURVE",
"96 79 OFFCURVE",
"85 79 CURVE SMOOTH",
"75 79 OFFCURVE",
"66 71 OFFCURVE",
"66 60 CURVE SMOOTH"
);
},
{
closed = 1;
nodes = (
"104 667 OFFCURVE",
"128 691 OFFCURVE",
"158 691 CURVE SMOOTH",
"188 691 OFFCURVE",
"212 667 OFFCURVE",
"212 637 CURVE SMOOTH",
"212 607 OFFCURVE",
"188 583 OFFCURVE",
"158 583 CURVE SMOOTH",
"128 583 OFFCURVE",
"104 607 OFFCURVE",
"104 637 CURVE SMOOTH"
);
},
{
closed = 1;
nodes = (
"314 204 LINE",
"336 159 LINE",
"129 55 LINE",
"107 99 LINE"
);
},
{
closed = 1;
nodes = (
"138 628 OFFCURVE",
"146 619 OFFCURVE",
"156 619 CURVE SMOOTH",
"167 619 OFFCURVE",
"175 628 OFFCURVE",
"175 638 CURVE SMOOTH",
"175 649 OFFCURVE",
"167 657 OFFCURVE",
"156 657 CURVE SMOOTH",
"146 657 OFFCURVE",
"138 649 OFFCURVE",
"138 638 CURVE SMOOTH"
);
},
{
closed = 1;
nodes = (
"196 615 LINE",
"363 241 LINE",
"317 221 LINE",
"151 595 LINE"
);
},
{
closed = 1;
nodes = (
"297 222 OFFCURVE",
"322 246 OFFCURVE",
"352 246 CURVE SMOOTH",
"382 246 OFFCURVE",
"406 222 OFFCURVE",
"406 192 CURVE SMOOTH",
"406 163 OFFCURVE",
"382 139 OFFCURVE",
"352 139 CURVE SMOOTH",
"322 139 OFFCURVE",
"297 163 OFFCURVE",
"297 192 CURVE SMOOTH"
);
},
{
closed = 1;
nodes = (
"332 183 OFFCURVE",
"341 174 OFFCURVE",
"351 174 CURVE SMOOTH",
"362 174 OFFCURVE",
"370 183 OFFCURVE",
"370 193 CURVE SMOOTH",
"370 204 OFFCURVE",
"362 212 OFFCURVE",
"351 212 CURVE SMOOTH",
"341 212 OFFCURVE",
"332 204 OFFCURVE",
"332 193 CURVE SMOOTH"
);
}
);
width = 436;
}
);
unicode = 0033;
},
{
glyphname = four;
lastChange = "2019-12-27 09:51:38 +0000";
layers = (
{
layerId = "B1BCE86B-A7FB-414A-B0E3-B1B1CA0865E7";
paths = (
{
closed = 1;
nodes = (
"30 665 OFFCURVE",
"57 692 OFFCURVE",
"90 692 CURVE SMOOTH",
"123 692 OFFCURVE",
"150 665 OFFCURVE",
"150 632 CURVE SMOOTH",
"150 599 OFFCURVE",
"123 572 OFFCURVE",
"90 572 CURVE SMOOTH",
"57 572 OFFCURVE",
"30 599 OFFCURVE",
"30 632 CURVE SMOOTH"
);
},
{
closed = 1;
nodes = (
"68 622 OFFCURVE",
"77 612 OFFCURVE",
"88 612 CURVE SMOOTH",
"100 612 OFFCURVE",
"109 622 OFFCURVE",
"109 633 CURVE SMOOTH",
"109 645 OFFCURVE",
"100 654 OFFCURVE",
"88 654 CURVE SMOOTH",
"77 654 OFFCURVE",
"68 645 OFFCURVE",
"68 633 CURVE SMOOTH"
);
},
{
closed = 1;
nodes = (
"134 664 LINE",
"544 664 LINE",
"544 603 LINE",
"134 603 LINE"
);
},
{
closed = 1;
nodes = (
"523 95 OFFCURVE",
"550 122 OFFCURVE",
"583 122 CURVE SMOOTH",
"617 122 OFFCURVE",
"643 95 OFFCURVE",
"643 63 CURVE SMOOTH",
"643 31 OFFCURVE",
"617 5 OFFCURVE",
"583 5 CURVE SMOOTH",
"550 5 OFFCURVE",
"523 31 OFFCURVE",
"523 63 CURVE SMOOTH"
);
},
{
closed = 1;
nodes = (
"523 668 OFFCURVE",
"550 695 OFFCURVE",
"583 695 CURVE SMOOTH",
"617 695 OFFCURVE",
"643 668 OFFCURVE",
"643 635 CURVE SMOOTH",
"643 603 OFFCURVE",
"617 577 OFFCURVE",
"583 577 CURVE SMOOTH",
"550 577 OFFCURVE",
"523 603 OFFCURVE",
"523 635 CURVE SMOOTH"
);
},
{
closed = 1;
nodes = (
"555 591 LINE",
"610 591 LINE",
"610 114 LINE",
"555 114 LINE"
);
},
{
closed = 1;
nodes = (
"560 625 OFFCURVE",
"570 615 OFFCURVE",
"581 615 CURVE SMOOTH",
"593 615 OFFCURVE",
"602 625 OFFCURVE",
"602 636 CURVE SMOOTH",
"602 649 OFFCURVE",
"593 658 OFFCURVE",
"581 658 CURVE SMOOTH",
"570 658 OFFCURVE",
"560 649 OFFCURVE",
"560 636 CURVE SMOOTH"
);
},
{
closed = 1;
nodes = (
"561 52 OFFCURVE",
"571 43 OFFCURVE",
"582 43 CURVE SMOOTH",
"593 43 OFFCURVE",
"603 52 OFFCURVE",
"603 64 CURVE SMOOTH",
"603 76 OFFCURVE",
"593 85 OFFCURVE",
"582 85 CURVE SMOOTH",
"571 85 OFFCURVE",
"561 76 OFFCURVE",
"561 64 CURVE SMOOTH"
);
}
);
width = 673;
}
);
unicode = 0034;
},
{
glyphname = five;
lastChange = "2019-12-27 09:54:49 +0000";
layers = (
{
layerId = "B1BCE86B-A7FB-414A-B0E3-B1B1CA0865E7";
paths = (
{
closed = 1;
nodes = (
"30 662 OFFCURVE",
"57 689 OFFCURVE",
"90 689 CURVE SMOOTH",
"123 689 OFFCURVE",
"150 662 OFFCURVE",
"150 629 CURVE SMOOTH",
"150 596 OFFCURVE",
"123 570 OFFCURVE",
"90 570 CURVE SMOOTH",
"57 570 OFFCURVE",
"30 596 OFFCURVE",
"30 629 CURVE SMOOTH"
);
},
{
closed = 1;
nodes = (
"44 97 OFFCURVE",
"70 123 OFFCURVE",
"103 123 CURVE SMOOTH",
"136 123 OFFCURVE",
"164 97 OFFCURVE",
"164 64 CURVE SMOOTH",
"164 32 OFFCURVE",
"136 5 OFFCURVE",
"103 5 CURVE SMOOTH",
"70 5 OFFCURVE",
"44 32 OFFCURVE",
"44 64 CURVE SMOOTH"
);
},
{
closed = 1;
nodes = (
"45 371 OFFCURVE",
"71 397 OFFCURVE",
"104 397 CURVE SMOOTH",
"137 397 OFFCURVE",
"165 371 OFFCURVE",
"165 339 CURVE SMOOTH",
"165 306 OFFCURVE",
"137 279 OFFCURVE",
"104 279 CURVE SMOOTH",
"71 279 OFFCURVE",
"45 306 OFFCURVE",
"45 339 CURVE SMOOTH"
);
},
{
closed = 1;
nodes = (
"68 619 OFFCURVE",
"77 609 OFFCURVE",
"88 609 CURVE SMOOTH",
"100 609 OFFCURVE",
"109 619 OFFCURVE",
"109 630 CURVE SMOOTH",
"109 642 OFFCURVE",
"100 651 OFFCURVE",
"88 651 CURVE SMOOTH",
"77 651 OFFCURVE",
"68 642 OFFCURVE",
"68 630 CURVE SMOOTH"
);
},
{
closed = 1;
nodes = (
"78 307 LINE",
"133 307 LINE",
"133 102 LINE",
"78 102 LINE"
);
},
{
closed = 1;
nodes = (
"82 328 OFFCURVE",
"91 319 OFFCURVE",
"103 319 CURVE SMOOTH",
"114 319 OFFCURVE",
"124 328 OFFCURVE",
"124 340 CURVE SMOOTH",
"124 351 OFFCURVE",
"114 361 OFFCURVE",
"103 361 CURVE SMOOTH",
"91 361 OFFCURVE",
"82 351 OFFCURVE",
"82 340 CURVE SMOOTH"
);
},
{
closed = 1;
nodes = (
"83 55 OFFCURVE",
"93 45 OFFCURVE",
"104 45 CURVE SMOOTH",
"115 45 OFFCURVE",
"125 55 OFFCURVE",
"125 66 CURVE SMOOTH",
"125 78 OFFCURVE",
"115 88 OFFCURVE",
"104 88 CURVE SMOOTH",
"93 88 OFFCURVE",
"83 78 OFFCURVE",
"83 66 CURVE SMOOTH"
);
},
{
closed = 1;
nodes = (
"134 661 LINE",
"544 661 LINE",
"544 600 LINE",
"134 600 LINE"
);
},
{
closed = 1;
nodes = (
"523 93 OFFCURVE",
"550 119 OFFCURVE",
"583 119 CURVE SMOOTH",
"617 119 OFFCURVE",
"643 93 OFFCURVE",
"643 61 CURVE SMOOTH",
"643 29 OFFCURVE",
"617 2 OFFCURVE",
"583 2 CURVE SMOOTH",
"550 2 OFFCURVE",
"523 29 OFFCURVE",
"523 61 CURVE SMOOTH"
);
},
{
closed = 1;
nodes = (
"523 666 OFFCURVE",
"550 692 OFFCURVE",
"583 692 CURVE SMOOTH",
"617 692 OFFCURVE",
"643 666 OFFCURVE",
"643 632 CURVE SMOOTH",
"643 600 OFFCURVE",
"617 574 OFFCURVE",
"583 574 CURVE SMOOTH",
"550 574 OFFCURVE",
"523 600 OFFCURVE",
"523 632 CURVE SMOOTH"
);
},
{
closed = 1;
nodes = (
"555 588 LINE",
"610 588 LINE",
"610 111 LINE",
"555 111 LINE"
);
},
{
closed = 1;
nodes = (
"560 622 OFFCURVE",
"570 613 OFFCURVE",
"581 613 CURVE SMOOTH",
"593 613 OFFCURVE",
"602 622 OFFCURVE",
"602 634 CURVE SMOOTH",
"602 646 OFFCURVE",
"593 656 OFFCURVE",
"581 656 CURVE SMOOTH",
"570 656 OFFCURVE",
"560 646 OFFCURVE",
"560 634 CURVE SMOOTH"
);
},
{
closed = 1;
nodes = (
"561 49 OFFCURVE",
"571 41 OFFCURVE",
"582 41 CURVE SMOOTH",
"593 41 OFFCURVE",
"603 49 OFFCURVE",
"603 62 CURVE SMOOTH",
"603 73 OFFCURVE",
"593 83 OFFCURVE",
"582 83 CURVE SMOOTH",
"571 83 OFFCURVE",
"561 73 OFFCURVE",
"561 62 CURVE SMOOTH"
);
}
);
width = 673;
}
);
unicode = 0035;
},
{
glyphname = six;
lastChange = "2019-12-27 09:56:39 +0000";
layers = (
{
layerId = "B1BCE86B-A7FB-414A-B0E3-B1B1CA0865E7";
paths = (
{
closed = 1;
nodes = (
"30 673 OFFCURVE",
"56 698 OFFCURVE",
"87 698 CURVE SMOOTH",
"118 698 OFFCURVE",
"143 673 OFFCURVE",
"143 643 CURVE SMOOTH",
"143 612 OFFCURVE",
"118 587 OFFCURVE",
"87 587 CURVE SMOOTH",
"56 587 OFFCURVE",
"30 612 OFFCURVE",
"30 643 CURVE SMOOTH"
);
},
{
closed = 1;
nodes = (
"65 633 OFFCURVE",
"75 625 OFFCURVE",
"85 625 CURVE SMOOTH",
"95 625 OFFCURVE",
"105 633 OFFCURVE",
"105 644 CURVE SMOOTH",
"105 655 OFFCURVE",
"95 664 OFFCURVE",
"85 664 CURVE SMOOTH",
"75 664 OFFCURVE",
"65 655 OFFCURVE",
"65 644 CURVE SMOOTH"
);
},
{
closed = 1;
nodes = (
"124 650 LINE",
"269 551 LINE",
"240 508 LINE",
"95 607 LINE"
);
},
{
closed = 1;
nodes = (
"233 89 OFFCURVE",
"258 114 OFFCURVE",
"289 114 CURVE SMOOTH",
"320 114 OFFCURVE",
"346 89 OFFCURVE",
"346 59 CURVE SMOOTH",
"346 27 OFFCURVE",
"320 2 OFFCURVE",
"289 2 CURVE SMOOTH",
"258 2 OFFCURVE",
"233 27 OFFCURVE",
"233 59 CURVE SMOOTH"
);
},
{
closed = 1;
nodes = (
"234 535 OFFCURVE",
"259 560 OFFCURVE",
"290 560 CURVE SMOOTH",
"321 560 OFFCURVE",
"347 535 OFFCURVE",
"347 504 CURVE SMOOTH",
"347 473 OFFCURVE",
"321 448 OFFCURVE",
"290 448 CURVE SMOOTH",
"259 448 OFFCURVE",
"234 473 OFFCURVE",
"234 504 CURVE SMOOTH"
);
},
{
closed = 1;
nodes = (
"264 473 LINE",
"316 473 LINE",
"316 106 LINE",
"264 106 LINE"
);
},
{
closed = 1;
nodes = (
"269 48 OFFCURVE",
"277 39 OFFCURVE",
"289 39 CURVE SMOOTH",
"299 39 OFFCURVE",
"308 48 OFFCURVE",
"308 59 CURVE SMOOTH",
"308 70 OFFCURVE",
"299 79 OFFCURVE",
"289 79 CURVE SMOOTH",
"277 79 OFFCURVE",
"269 70 OFFCURVE",
"269 59 CURVE SMOOTH"
);
},
{
closed = 1;
nodes = (
"269 495 OFFCURVE",
"277 485 OFFCURVE",
"289 485 CURVE SMOOTH",
"299 485 OFFCURVE",
"308 495 OFFCURVE",
"308 505 CURVE SMOOTH",
"308 516 OFFCURVE",
"299 525 OFFCURVE",
"289 525 CURVE SMOOTH",
"277 525 OFFCURVE",
"269 516 OFFCURVE",
"269 505 CURVE SMOOTH"
);
}
);
width = 377;
}
);
unicode = 0036;
},
{
glyphname = seven;
lastChange = "2019-12-27 10:00:30 +0000";
layers = (
{
layerId = "B1BCE86B-A7FB-414A-B0E3-B1B1CA0865E7";
paths = (
{
closed = 1;
nodes = (
"30 674 OFFCURVE",
"56 699 OFFCURVE",
"87 699 CURVE SMOOTH",
"118 699 OFFCURVE",
"143 674 OFFCURVE",
"143 643 CURVE SMOOTH",
"143 612 OFFCURVE",
"118 587 OFFCURVE",
"87 587 CURVE SMOOTH",
"56 587 OFFCURVE",
"30 612 OFFCURVE",
"30 643 CURVE SMOOTH"
);
},
{
closed = 1;
nodes = (
"65 633 OFFCURVE",
"75 625 OFFCURVE",
"85 625 CURVE SMOOTH",
"95 625 OFFCURVE",
"105 633 OFFCURVE",
"105 644 CURVE SMOOTH",
"105 655 OFFCURVE",
"95 664 OFFCURVE",
"85 664 CURVE SMOOTH",
"75 664 OFFCURVE",
"65 655 OFFCURVE",
"65 644 CURVE SMOOTH"
);
},
{
closed = 1;
nodes = (
"122 616 LINE",
"297 112 LINE",
"247 95 LINE",
"74 600 LINE"
);
},
{
closed = 1;
nodes = (
"124 650 LINE",
"269 551 LINE",
"240 508 LINE",
"95 607 LINE"
);
},
{
closed = 1;
nodes = (
"233 89 OFFCURVE",
"258 114 OFFCURVE",
"289 114 CURVE SMOOTH",
"320 114 OFFCURVE",
"346 89 OFFCURVE",
"346 59 CURVE SMOOTH",
"346 27 OFFCURVE",
"320 3 OFFCURVE",
"289 3 CURVE SMOOTH",
"258 3 OFFCURVE",
"233 27 OFFCURVE",
"233 59 CURVE SMOOTH"
);
},
{
closed = 1;
nodes = (
"234 535 OFFCURVE",
"259 560 OFFCURVE",
"290 560 CURVE SMOOTH",
"321 560 OFFCURVE",
"347 535 OFFCURVE",
"347 504 CURVE SMOOTH",
"347 473 OFFCURVE",
"321 448 OFFCURVE",
"290 448 CURVE SMOOTH",
"259 448 OFFCURVE",
"234 473 OFFCURVE",
"234 504 CURVE SMOOTH"
);
},
{
closed = 1;
nodes = (
"269 48 OFFCURVE",
"277 39 OFFCURVE",
"289 39 CURVE SMOOTH",
"299 39 OFFCURVE",
"308 48 OFFCURVE",
"308 59 CURVE SMOOTH",
"308 70 OFFCURVE",
"299 79 OFFCURVE",
"289 79 CURVE SMOOTH",
"277 79 OFFCURVE",
"269 70 OFFCURVE",
"269 59 CURVE SMOOTH"
);
},
{
closed = 1;
nodes = (
"269 495 OFFCURVE",
"277 485 OFFCURVE",
"289 485 CURVE SMOOTH",
"299 485 OFFCURVE",
"308 495 OFFCURVE",
"308 505 CURVE SMOOTH",
"308 516 OFFCURVE",
"299 525 OFFCURVE",
"289 525 CURVE SMOOTH",
"277 525 OFFCURVE",
"269 516 OFFCURVE",
"269 505 CURVE SMOOTH"
);
}
);
width = 377;
}
);
unicode = 0037;
},
{
glyphname = eight;
lastChange = "2019-12-27 10:02:43 +0000";
layers = (
{
layerId = "B1BCE86B-A7FB-414A-B0E3-B1B1CA0865E7";
paths = (
{
closed = 1;
nodes = (
"30 94 OFFCURVE",
"55 121 OFFCURVE",
"89 121 CURVE SMOOTH",
"122 121 OFFCURVE",
"149 94 OFFCURVE",
"149 62 CURVE SMOOTH",
"149 30 OFFCURVE",
"122 3 OFFCURVE",
"89 3 CURVE SMOOTH",
"55 3 OFFCURVE",
"30 30 OFFCURVE",
"30 62 CURVE SMOOTH"
);
},
{
closed = 1;
nodes = (
"30 664 OFFCURVE",
"55 691 OFFCURVE",
"89 691 CURVE SMOOTH",
"122 691 OFFCURVE",
"148 664 OFFCURVE",
"148 631 CURVE SMOOTH",
"148 598 OFFCURVE",
"122 571 OFFCURVE",
"89 571 CURVE SMOOTH",
"55 571 OFFCURVE",
"30 598 OFFCURVE",
"30 631 CURVE SMOOTH"
);
},
{
closed = 1;
nodes = (
"60 598 LINE",
"116 598 LINE",
"116 107 LINE",
"60 107 LINE"
);
},
{
closed = 1;
nodes = (
"67 621 OFFCURVE",
"76 611 OFFCURVE",
"87 611 CURVE SMOOTH",
"99 611 OFFCURVE",
"107 621 OFFCURVE",
"107 633 CURVE SMOOTH",
"107 644 OFFCURVE",
"99 653 OFFCURVE",
"87 653 CURVE SMOOTH",
"76 653 OFFCURVE",
"67 644 OFFCURVE",
"67 633 CURVE SMOOTH"
);
},
{
closed = 1;
nodes = (
"69 52 OFFCURVE",
"79 44 OFFCURVE",
"90 44 CURVE SMOOTH",
"101 44 OFFCURVE",
"111 52 OFFCURVE",
"111 65 CURVE SMOOTH",
"111 77 OFFCURVE",
"101 86 OFFCURVE",
"90 86 CURVE SMOOTH",
"79 86 OFFCURVE",
"69 77 OFFCURVE",
"69 65 CURVE SMOOTH"
);
},
{
closed = 1;
nodes = (
"133 663 LINE",
"543 663 LINE",
"543 602 LINE",
"133 602 LINE"
);
},
{
closed = 1;
nodes = (
"521 94 OFFCURVE",
"549 121 OFFCURVE",
"583 121 CURVE SMOOTH",
"615 121 OFFCURVE",
"642 94 OFFCURVE",
"642 62 CURVE SMOOTH",
"642 31 OFFCURVE",
"615 4 OFFCURVE",
"583 4 CURVE SMOOTH",
"549 4 OFFCURVE",
"521 31 OFFCURVE",
"521 62 CURVE SMOOTH"
);
},
{
closed = 1;
nodes = (
"521 667 OFFCURVE",
"549 694 OFFCURVE",
"583 694 CURVE SMOOTH",
"615 694 OFFCURVE",
"642 667 OFFCURVE",
"642 635 CURVE SMOOTH",
"642 602 OFFCURVE",
"615 576 OFFCURVE",
"583 576 CURVE SMOOTH",
"549 576 OFFCURVE",
"521 602 OFFCURVE",
"521 635 CURVE SMOOTH"
);
},
{
closed = 1;
nodes = (
"554 590 LINE",
"609 590 LINE",
"609 113 LINE",
"554 113 LINE"
);
},
{
closed = 1;
nodes = (
"559 624 OFFCURVE",
"569 614 OFFCURVE",
"581 614 CURVE SMOOTH",
"593 614 OFFCURVE",
"601 624 OFFCURVE",
"601 636 CURVE SMOOTH",
"601 648 OFFCURVE",
"593 657 OFFCURVE",
"581 657 CURVE SMOOTH",
"569 657 OFFCURVE",
"559 648 OFFCURVE",
"559 636 CURVE SMOOTH"
);
},
{
closed = 1;
nodes = (
"560 51 OFFCURVE",
"570 42 OFFCURVE",
"582 42 CURVE SMOOTH",
"593 42 OFFCURVE",
"602 51 OFFCURVE",
"602 63 CURVE SMOOTH",
"602 75 OFFCURVE",
"593 85 OFFCURVE",
"582 85 CURVE SMOOTH",
"570 85 OFFCURVE",
"560 75 OFFCURVE",
"560 63 CURVE SMOOTH"
);
}
);
width = 672;
}
);
unicode = 0038;
},
{
glyphname = nine;
lastChange = "2019-12-27 10:04:40 +0000";
layers = (
{
layerId = "B1BCE86B-A7FB-414A-B0E3-B1B1CA0865E7";
paths = (
{
closed = 1;
nodes = (
"30 96 OFFCURVE",
"57 122 OFFCURVE",
"90 122 CURVE SMOOTH",
"122 122 OFFCURVE",
"148 96 OFFCURVE",
"148 63 CURVE SMOOTH",
"148 32 OFFCURVE",
"122 6 OFFCURVE",
"90 6 CURVE SMOOTH",
"57 6 OFFCURVE",
"30 32 OFFCURVE",
"30 63 CURVE SMOOTH"
);
},
{
closed = 1;
nodes = (
"63 302 LINE",
"117 302 LINE",
"117 101 LINE",
"63 101 LINE"
);
},
{
closed = 1;
nodes = (
"68 661 OFFCURVE",
"94 687 OFFCURVE",
"127 687 CURVE SMOOTH",
"159 687 OFFCURVE",
"186 661 OFFCURVE",
"186 628 CURVE SMOOTH",
"186 596 OFFCURVE",
"159 570 OFFCURVE",
"127 570 CURVE SMOOTH",
"94 570 OFFCURVE",
"68 596 OFFCURVE",
"68 628 CURVE SMOOTH"
);
},
{
closed = 1;
nodes = (
"70 54 OFFCURVE",
"79 45 OFFCURVE",
"91 45 CURVE SMOOTH",
"102 45 OFFCURVE",
"110 54 OFFCURVE",
"110 66 CURVE SMOOTH",
"110 77 OFFCURVE",
"102 87 OFFCURVE",
"91 87 CURVE SMOOTH",
"79 87 OFFCURVE",
"70 77 OFFCURVE",
"70 66 CURVE SMOOTH"
);
},
{
closed = 1;
nodes = (
"105 618 OFFCURVE",
"114 609 OFFCURVE",
"126 609 CURVE SMOOTH",
"136 609 OFFCURVE",
"145 618 OFFCURVE",
"145 629 CURVE SMOOTH",
"145 641 OFFCURVE",
"136 650 OFFCURVE",
"126 650 CURVE SMOOTH",
"114 650 OFFCURVE",
"105 641 OFFCURVE",
"105 629 CURVE SMOOTH"
);
},
{
closed = 1;
nodes = (
"133 93 LINE",
"613 93 LINE",
"613 34 LINE",
"133 34 LINE"
);
},
{
closed = 1;
nodes = (
"174 612 LINE",
"370 419 LINE",
"332 380 LINE",
"136 574 LINE"
);
},
{
closed = 1;
nodes = (
"431 670 OFFCURVE",
"457 696 OFFCURVE",
"489 696 CURVE SMOOTH",
"522 696 OFFCURVE",
"548 670 OFFCURVE",
"548 638 CURVE SMOOTH",
"548 607 OFFCURVE",
"522 581 OFFCURVE",
"489 581 CURVE SMOOTH",
"457 581 OFFCURVE",
"431 607 OFFCURVE",
"431 638 CURVE SMOOTH"
);
},
{
closed = 1;
nodes = (
"468 628 OFFCURVE",
"476 620 OFFCURVE",
"487 620 CURVE SMOOTH",
"499 620 OFFCURVE",
"508 628 OFFCURVE",
"508 640 CURVE SMOOTH",
"508 651 OFFCURVE",
"499 661 OFFCURVE",
"487 661 CURVE SMOOTH",
"476 661 OFFCURVE",
"468 651 OFFCURVE",
"468 640 CURVE SMOOTH"
);
},
{
closed = 1;
nodes = (
"526 630 LINE",
"723 438 LINE",
"685 399 LINE",
"489 592 LINE"
);
},
{
closed = 1;
nodes = (
"589 98 OFFCURVE",
"615 124 OFFCURVE",
"647 124 CURVE SMOOTH",
"680 124 OFFCURVE",
"706 98 OFFCURVE",
"706 66 CURVE SMOOTH",
"706 34 OFFCURVE",
"680 8 OFFCURVE",
"647 8 CURVE SMOOTH",
"615 8 OFFCURVE",
"589 34 OFFCURVE",
"589 66 CURVE SMOOTH"
);
},
{
closed = 1;
nodes = (
"627 56 OFFCURVE",
"635 46 OFFCURVE",
"646 46 CURVE SMOOTH",
"658 46 OFFCURVE",
"667 56 OFFCURVE",
"667 66 CURVE SMOOTH",
"667 78 OFFCURVE",
"658 87 OFFCURVE",
"646 87 CURVE SMOOTH",
"635 87 OFFCURVE",
"627 78 OFFCURVE",
"627 66 CURVE SMOOTH"
);
}
);
width = 753;
}
);
unicode = 0039;
},
{
glyphname = period;
lastChange = "2019-12-27 10:06:27 +0000";
layers = (
{
layerId = "B1BCE86B-A7FB-414A-B0E3-B1B1CA0865E7";
paths = (
{
closed = 1;
nodes = (
"30 93 OFFCURVE",
"56 119 OFFCURVE",
"90 119 CURVE SMOOTH",
"123 119 OFFCURVE",
"150 93 OFFCURVE",
"150 60 CURVE SMOOTH",
"150 27 OFFCURVE",
"123 1 OFFCURVE",
"90 1 CURVE SMOOTH",
"56 1 OFFCURVE",
"30 27 OFFCURVE",
"30 60 CURVE SMOOTH"
);
},
{
closed = 1;
nodes = (
"68 49 OFFCURVE",
"77 39 OFFCURVE",
"89 39 CURVE SMOOTH",
"100 39 OFFCURVE",
"110 49 OFFCURVE",
"110 61 CURVE SMOOTH",
"110 72 OFFCURVE",
"100 82 OFFCURVE",
"89 82 CURVE SMOOTH",
"77 82 OFFCURVE",
"68 72 OFFCURVE",
"68 61 CURVE SMOOTH"
);
}
);
width = 180;
}
);
unicode = 002E;
},
{
glyphname = comma;
lastChange = "2019-12-27 10:07:11 +0000";
layers = (
{
layerId = "B1BCE86B-A7FB-414A-B0E3-B1B1CA0865E7";
paths = (
{
closed = 1;
nodes = (
"62 89 LINE",
"120 89 LINE",
"120 34 LINE",
"62 34 LINE"
);
},
{
closed = 1;
nodes = (
"89 119 LINE",
"123 119 OFFCURVE",
"149 92 OFFCURVE",
"149 60 CURVE",
"149 27 OFFCURVE",
"123 1 OFFCURVE",
"89 1 CURVE",
"56 1 OFFCURVE",
"30 27 OFFCURVE",
"30 60 CURVE",
"30 92 OFFCURVE",
"56 119 OFFCURVE",
"89 119 CURVE"
);
},
{
closed = 1;
nodes = (
"88 81 LINE",
"101 81 OFFCURVE",
"109 73 OFFCURVE",
"109 60 CURVE",
"109 49 OFFCURVE",
"101 39 OFFCURVE",
"88 39 CURVE",
"77 39 OFFCURVE",
"69 49 OFFCURVE",
"69 60 CURVE",
"69 73 OFFCURVE",
"77 81 OFFCURVE",
"88 81 CURVE"
);
}
);
width = 179;
}
);
unicode = 002C;
},
{
glyphname = hyphen;
lastChange = "2019-12-27 10:08:39 +0000";
layers = (
{
layerId = "B1BCE86B-A7FB-414A-B0E3-B1B1CA0865E7";
paths = (
{
closed = 1;
nodes = (
"30 330 OFFCURVE",
"57 356 OFFCURVE",
"89 356 CURVE SMOOTH",
"122 356 OFFCURVE",
"148 330 OFFCURVE",
"148 299 CURVE SMOOTH",
"148 266 OFFCURVE",
"122 240 OFFCURVE",
"89 240 CURVE SMOOTH",
"57 240 OFFCURVE",
"30 266 OFFCURVE",
"30 299 CURVE SMOOTH"
);
},
{
closed = 1;
nodes = (
"67 288 OFFCURVE",
"76 279 OFFCURVE",
"87 279 CURVE SMOOTH",
"98 279 OFFCURVE",
"108 288 OFFCURVE",
"108 300 CURVE SMOOTH",
"108 312 OFFCURVE",
"98 320 OFFCURVE",
"87 320 CURVE SMOOTH",
"76 320 OFFCURVE",
"67 312 OFFCURVE",
"67 300 CURVE SMOOTH"
);
},
{
closed = 1;
nodes = (
"131 330 LINE",
"534 330 LINE",
"534 271 LINE",
"131 271 LINE"
);
},
{
closed = 1;
nodes = (
"514 335 OFFCURVE",
"541 360 OFFCURVE",
"573 360 CURVE SMOOTH",
"606 360 OFFCURVE",
"632 335 OFFCURVE",
"632 302 CURVE SMOOTH",
"632 270 OFFCURVE",
"606 244 OFFCURVE",
"573 244 CURVE SMOOTH",
"541 244 OFFCURVE",
"514 270 OFFCURVE",
"514 302 CURVE SMOOTH"
);
},
{
closed = 1;
nodes = (
"550 292 OFFCURVE",
"560 283 OFFCURVE",
"571 283 CURVE SMOOTH",
"582 283 OFFCURVE",
"592 292 OFFCURVE",
"592 303 CURVE SMOOTH",
"592 315 OFFCURVE",
"582 324 OFFCURVE",
"571 324 CURVE SMOOTH",
"560 324 OFFCURVE",
"550 315 OFFCURVE",
"550 303 CURVE SMOOTH"
);
}
);
width = 662;
}
);
unicode = 002D;
},
